<svg width="223" height="223" viewBox="0 0 223 223" fill="none" xmlns="http://www.w3.org/2000/svg">
<path d="M182.301 88.4425C181.894 88.5822 181.491 88.558 181.092 88.37C180.702 88.1791 180.435 87.876 180.293 87.4607C180.153 87.0537 180.177 86.6508 180.365 86.2521C180.565 85.8587 180.868 85.5922 181.275 85.4525C181.69 85.31 182.093 85.3342 182.483 85.5251C182.877 85.7243 183.143 86.0274 183.283 86.4343C183.425 86.8496 183.401 87.2525 183.21 87.643C183.019 88.0335 182.716 88.3 182.301 88.4425ZM184.99 99.4076C183.705 99.6979 182.596 99.5481 181.661 98.958C180.56 98.3067 179.851 97.2829 179.536 95.8868C179.234 94.5506 179.441 93.3155 180.157 92.1814C180.873 91.0473 181.907 90.3274 183.261 90.0215C184.614 89.7157 185.858 89.9208 186.992 90.6368C188.126 91.3528 188.844 92.3789 189.146 93.7151C189.299 94.3918 189.323 95.057 189.219 95.7107C189.114 96.3645 188.887 96.9335 188.538 97.4176L187.498 96.7613C187.777 96.4012 187.959 95.9729 188.045 95.4763C188.141 94.9864 188.131 94.4845 188.015 93.9706C187.789 92.9685 187.25 92.1989 186.4 91.6619C185.542 91.1354 184.587 90.9912 183.534 91.2292C182.48 91.4673 181.68 92.0083 181.132 92.8523C180.595 93.7028 180.44 94.6292 180.666 95.6313C180.873 96.5478 181.303 97.252 181.954 97.744C182.605 98.236 183.391 98.4275 184.312 98.3185L183.557 94.9781L184.662 94.7284L185.669 99.1866C185.439 99.2836 185.213 99.3573 184.99 99.4076ZM180.922 101.446L190.315 100.604L190.572 103.478C190.701 104.912 190.371 106.101 189.583 107.044C188.795 107.997 187.702 108.535 186.302 108.661C184.894 108.787 183.718 108.451 182.774 107.654C181.839 106.865 181.308 105.753 181.179 104.319L180.922 101.446ZM189.269 101.915L182.184 102.549L182.334 104.216C182.431 105.309 182.819 106.143 183.496 106.717C184.183 107.29 185.081 107.527 186.192 107.427C187.294 107.329 188.132 106.936 188.705 106.25C189.278 105.564 189.516 104.674 189.418 103.581L189.269 101.915ZM185.541 119.403C184.225 119.344 183.194 118.907 182.448 118.092C181.557 117.173 181.144 115.999 181.208 114.569C181.269 113.2 181.794 112.063 182.784 111.158C183.773 110.253 184.961 109.831 186.347 109.893C187.733 109.955 188.879 110.481 189.784 111.47C190.689 112.46 191.111 113.639 191.05 115.008C191.02 115.701 190.868 116.349 190.595 116.952C190.322 117.555 189.953 118.044 189.488 118.419L188.658 117.512C189.022 117.238 189.31 116.873 189.524 116.416C189.746 115.969 189.869 115.482 189.892 114.956C189.938 113.93 189.622 113.045 188.943 112.303C188.255 111.569 187.371 111.178 186.292 111.13C185.213 111.082 184.298 111.393 183.548 112.063C182.805 112.741 182.411 113.594 182.366 114.62C182.324 115.559 182.552 116.352 183.051 116.998C183.549 117.644 184.257 118.036 185.174 118.174L185.326 114.752L186.458 114.803L186.254 119.369C186.007 119.402 185.769 119.413 185.541 119.403ZM184.147 125.257L180.409 124.473L180.657 123.287L189.888 125.222L189.228 128.368C189.061 129.167 188.652 129.79 188.002 130.237C187.35 130.693 186.642 130.84 185.877 130.68C185.095 130.516 184.501 130.095 184.096 129.418C183.687 128.758 183.567 128.024 183.736 127.216L184.147 125.257ZM188.505 126.171L185.282 125.495L184.865 127.48C184.766 127.953 184.843 128.377 185.096 128.753C185.348 129.138 185.693 129.376 186.131 129.468C186.561 129.558 186.968 129.478 187.352 129.226C187.744 128.985 187.989 128.628 188.088 128.156L188.505 126.171ZM180.845 131.345C180.543 131.252 180.252 131.3 179.973 131.489C179.691 131.687 179.497 131.958 179.391 132.302C179.24 132.788 179.287 133.276 179.531 133.765C179.772 134.263 180.136 134.587 180.623 134.737C181.02 134.465 181.318 134.005 181.518 133.359C181.663 132.89 181.672 132.46 181.544 132.071C181.413 131.691 181.18 131.449 180.845 131.345ZM184.862 134.228C184.597 135.083 184.157 135.687 183.543 136.04C182.937 136.395 182.235 136.449 181.438 136.202L177.638 135.027L177.98 133.92L178.836 134.185L178.852 134.134C178.295 133.438 178.14 132.692 178.386 131.895C178.596 131.215 178.974 130.707 179.519 130.37C180.062 130.041 180.635 129.971 181.239 130.157C181.877 130.355 182.311 130.751 182.54 131.345C182.767 131.949 182.756 132.653 182.507 133.458C182.295 134.146 181.994 134.674 181.605 135.041L181.869 135.122C182.272 135.247 182.661 135.192 183.036 134.959C183.42 134.729 183.678 134.399 183.81 133.972C184.01 133.326 183.896 132.73 183.467 132.183L184.424 131.363C185.055 132.174 185.201 133.129 184.862 134.228ZM176.219 138.414C176.414 137.925 176.728 137.577 177.161 137.372C177.589 137.175 178.075 137.18 178.616 137.387L181.966 138.728L182.387 137.677L183.415 138.088L182.994 139.14L184.828 139.874L184.378 140.999L182.543 140.265L181.956 141.732L180.929 141.321L181.516 139.854L178.532 138.659C178.133 138.499 177.829 138.467 177.62 138.563C177.419 138.663 177.28 138.81 177.202 139.006C177.166 139.096 177.14 139.185 177.123 139.273C177.112 139.372 177.108 139.465 177.111 139.551L175.966 139.505C175.978 139.169 176.062 138.805 176.219 138.414ZM181.298 143.206L180.784 144.245L179.981 143.848L179.958 143.895C180.159 144.201 180.271 144.57 180.293 145.001C180.31 145.441 180.228 145.846 180.045 146.216C179.694 146.924 179.221 147.366 178.625 147.542C178.033 147.729 177.363 147.638 176.615 147.268L172.978 145.47L173.516 144.384L177.081 146.147C178.038 146.59 178.745 146.347 179.205 145.419C179.419 144.986 179.421 144.536 179.21 144.07C179.008 143.607 178.663 143.255 178.175 143.014L174.975 141.432L175.512 140.345L181.298 143.206ZM173.633 148.287C173.364 148.121 173.071 148.095 172.753 148.208C172.431 148.329 172.175 148.542 171.986 148.849C171.718 149.282 171.641 149.766 171.754 150.3C171.863 150.843 172.134 151.247 172.568 151.515C173.02 151.351 173.424 150.981 173.78 150.406C174.038 149.987 174.154 149.574 174.128 149.166C174.097 148.765 173.932 148.472 173.633 148.287ZM176.799 152.085C176.328 152.847 175.751 153.322 175.068 153.508C174.392 153.7 173.699 153.577 172.99 153.138L169.605 151.047L170.215 150.061L170.977 150.532L171.004 150.487C170.64 149.674 170.677 148.912 171.115 148.202C171.489 147.597 171.982 147.2 172.595 147.011C173.202 146.829 173.775 146.904 174.313 147.236C174.881 147.587 175.201 148.079 175.274 148.713C175.343 149.354 175.156 150.033 174.713 150.75C174.334 151.363 173.911 151.798 173.442 152.055L173.677 152.2C174.036 152.422 174.426 152.467 174.848 152.335C175.277 152.208 175.61 151.954 175.845 151.573C176.2 150.998 176.239 150.393 175.961 149.756L177.093 149.202C177.501 150.145 177.403 151.106 176.799 152.085ZM167.114 154.52L174.295 160.634L172.426 162.83C171.492 163.927 170.413 164.524 169.187 164.623C167.956 164.728 166.805 164.325 165.736 163.415C164.659 162.498 164.074 161.424 163.982 160.192C163.89 158.972 164.311 157.814 165.244 156.717L167.114 154.52ZM172.627 160.805L167.211 156.195L166.127 157.468C165.415 158.304 165.092 159.165 165.157 160.05C165.229 160.942 165.689 161.749 166.538 162.472C167.381 163.189 168.248 163.512 169.139 163.44C170.03 163.369 170.831 162.915 171.543 162.079L172.627 160.805ZM159.347 162.764C160.036 162.111 160.826 161.81 161.72 161.858C162.613 161.907 163.401 162.292 164.083 163.012C164.76 163.726 165.105 164.524 165.118 165.406C165.138 166.295 164.81 167.06 164.134 167.7C163.44 168.358 162.674 168.654 161.837 168.589C161 168.535 160.198 168.104 159.431 167.294L159.35 167.189L163.03 163.701C162.583 163.254 162.079 163.03 161.52 163.027C160.961 163.024 160.478 163.216 160.07 163.603C159.509 164.135 159.335 164.832 159.548 165.695L158.402 166.055C158.238 165.461 158.238 164.874 158.402 164.294C158.561 163.721 158.876 163.211 159.347 162.764ZM163.652 164.491L160.966 167.037C161.299 167.338 161.687 167.479 162.128 167.46C162.57 167.453 162.991 167.259 163.392 166.879C163.724 166.565 163.914 166.191 163.963 165.757C164.005 165.33 163.902 164.908 163.652 164.491ZM154.194 167.478L155.146 166.728L161.189 170.184L160.154 171L155.567 168.241L155.546 168.258L157.133 173.379L156.119 174.178L154.194 167.478ZM152.621 173.626L150.408 170.242L151.422 169.579L156.584 177.472L151.976 180.485L151.341 179.515L154.935 177.165L153.241 174.574L150 176.694L149.38 175.746L152.621 173.626ZM143.64 174.032C144.48 173.59 145.322 173.513 146.169 173.802C147.016 174.091 147.67 174.674 148.132 175.552C148.59 176.422 148.707 177.284 148.481 178.137C148.259 178.998 147.737 179.645 146.913 180.079C146.066 180.525 145.249 180.603 144.461 180.313C143.67 180.035 143.014 179.402 142.495 178.416L142.445 178.293L146.932 175.931C146.622 175.379 146.199 175.027 145.661 174.873C145.124 174.719 144.606 174.773 144.109 175.035C143.425 175.395 143.069 176.019 143.041 176.908L141.839 176.945C141.842 176.328 142.001 175.763 142.317 175.25C142.624 174.74 143.065 174.334 143.64 174.032ZM147.317 176.859L144.042 178.584C144.282 178.964 144.617 179.204 145.047 179.305C145.473 179.418 145.932 179.345 146.421 179.088C146.825 178.875 147.109 178.567 147.274 178.162C147.43 177.762 147.445 177.328 147.317 176.859ZM136.251 179.616C136.036 179.097 136.081 178.564 136.387 178.019C136.693 177.474 137.19 177.058 137.88 176.771C138.48 176.522 139.071 176.457 139.653 176.577C140.238 176.704 140.735 176.983 141.141 177.413L140.321 178.253C140.027 177.957 139.7 177.765 139.34 177.677C138.975 177.6 138.626 177.631 138.294 177.769C137.937 177.917 137.673 178.117 137.502 178.369C137.323 178.624 137.277 178.857 137.364 179.068C137.523 179.449 137.931 179.607 138.589 179.543L139.717 179.374C140.998 179.184 141.81 179.503 142.154 180.33C142.379 180.874 142.341 181.398 142.037 181.905C141.729 182.422 141.231 182.824 140.542 183.111C140.014 183.33 139.488 183.401 138.962 183.325C138.428 183.252 137.988 183.04 137.642 182.689L138.468 181.861C138.686 182.066 138.953 182.183 139.27 182.213C139.582 182.254 139.896 182.209 140.212 182.078C140.504 181.957 140.738 181.774 140.912 181.531C141.078 181.29 141.118 181.065 141.03 180.854C140.889 180.513 140.467 180.403 139.766 180.523L138.77 180.666C137.465 180.866 136.625 180.516 136.251 179.616ZM132.244 178.99C132.743 178.822 133.211 178.837 133.647 179.033C134.075 179.232 134.386 179.605 134.578 180.152L135.726 183.573L136.8 183.213L137.152 184.262L136.078 184.622L136.706 186.496L135.558 186.881L134.929 185.008L133.431 185.51L133.079 184.461L134.577 183.959L133.555 180.912C133.418 180.504 133.246 180.251 133.037 180.155C132.832 180.066 132.629 180.055 132.429 180.122C132.337 180.153 132.253 180.191 132.175 180.235C132.092 180.291 132.018 180.348 131.955 180.407L131.249 179.504C131.512 179.295 131.844 179.124 132.244 178.99ZM122.339 182.664L122.11 181.528L127.738 180.39L127.979 181.578L126.161 184.351C125.553 185.289 125.142 185.981 124.928 186.428C124.716 186.883 124.653 187.326 124.74 187.756C124.818 188.143 125.036 188.444 125.393 188.659C125.75 188.873 126.165 188.933 126.638 188.837C127.043 188.755 127.367 188.564 127.611 188.264C127.855 187.964 127.985 187.633 128.001 187.271L129.175 187.491C129.112 188.068 128.873 188.591 128.457 189.06C128.043 189.538 127.505 189.844 126.842 189.978C126.042 190.14 125.325 190.03 124.692 189.647C124.059 189.264 123.671 188.716 123.526 188.001C123.354 187.149 123.637 186.134 124.375 184.954L126.432 181.837L122.339 182.664ZM121.631 186.162C121.764 187.526 121.538 188.681 120.951 189.63C120.365 190.579 119.543 191.105 118.486 191.208C117.428 191.312 116.519 190.951 115.759 190.126C115 189.309 114.553 188.223 114.421 186.869C114.289 185.523 114.515 184.367 115.1 183.401C115.686 182.452 116.508 181.926 117.566 181.822C118.623 181.719 119.532 182.075 120.291 182.892C121.052 183.726 121.499 184.816 121.631 186.162ZM115.653 186.748C115.754 187.779 116.056 188.605 116.558 189.227C117.051 189.849 117.656 190.125 118.373 190.055C119.089 189.985 119.629 189.596 119.992 188.89C120.364 188.183 120.5 187.314 120.398 186.283C120.297 185.252 119.995 184.421 119.493 183.791C119 183.177 118.396 182.906 117.679 182.976C116.962 183.046 116.422 183.434 116.059 184.141C115.688 184.856 115.553 185.725 115.653 186.748ZM107.498 183.542L107.507 182.382L113.25 182.428L113.24 183.639L110.89 185.979C110.103 186.772 109.558 187.365 109.256 187.757C108.955 188.159 108.802 188.579 108.799 189.018C108.795 189.413 108.946 189.753 109.252 190.036C109.557 190.319 109.951 190.463 110.434 190.467C110.846 190.47 111.203 190.35 111.503 190.106C111.804 189.863 111.999 189.566 112.09 189.215L113.193 189.672C113.013 190.224 112.671 190.686 112.168 191.06C111.664 191.443 111.074 191.631 110.398 191.626C109.582 191.619 108.903 191.364 108.363 190.859C107.822 190.354 107.555 189.737 107.56 189.009C107.567 188.139 108.053 187.203 109.018 186.201L111.673 183.574L107.498 183.542ZM100.189 184.517C100.278 183.661 100.649 182.975 101.302 182.46C101.956 181.945 102.72 181.733 103.593 181.823C104.292 181.896 104.902 182.18 105.425 182.675C105.947 183.171 106.262 183.799 106.368 184.561L105.249 184.882C105.173 184.344 104.98 183.905 104.671 183.564C104.353 183.222 103.963 183.027 103.5 182.979C102.941 182.921 102.469 183.044 102.084 183.349C101.69 183.661 101.465 184.088 101.409 184.63C101.352 185.18 101.484 185.648 101.806 186.035C102.119 186.42 102.551 186.642 103.101 186.699C103.739 186.765 104.268 186.559 104.688 186.082L105.852 186.732L104.805 191.219L100.101 190.731L100.221 189.578L103.915 189.961L104.509 187.427L104.458 187.409C103.975 187.721 103.415 187.844 102.778 187.777C101.974 187.694 101.322 187.34 100.822 186.714C100.313 186.088 100.102 185.355 100.189 184.517ZM95.059 185.063C95.1416 184.641 95.364 184.304 95.7263 184.053C96.0869 183.81 96.4826 183.731 96.9135 183.815C97.3358 183.898 97.6726 184.12 97.9239 184.483C98.1649 184.852 98.2441 185.248 98.1616 185.67C98.0773 186.101 97.8549 186.438 97.4943 186.68C97.1251 186.921 96.7293 187.001 96.3071 186.918C95.8762 186.834 95.5394 186.611 95.2967 186.251C95.054 185.89 94.9748 185.494 95.059 185.063ZM84.2052 181.947C84.5911 180.688 85.2722 179.799 86.2484 179.281C87.3607 178.648 88.6012 178.542 89.9697 178.961C91.2794 179.362 92.2487 180.155 92.8776 181.34C93.5064 182.525 93.6176 183.78 93.2111 185.107C92.8045 186.433 92.009 187.411 90.8243 188.04C89.6397 188.669 88.3925 188.783 87.0828 188.381C86.4195 188.178 85.83 187.869 85.3144 187.453C84.7987 187.038 84.4176 186.559 84.171 186.015L85.2569 185.438C85.431 185.859 85.7123 186.23 86.1007 186.551C86.4781 186.878 86.9186 187.119 87.4224 187.273C88.4047 187.574 89.3401 187.489 90.2286 187.017C91.1112 186.534 91.7108 185.777 92.0273 184.744C92.3437 183.711 92.2716 182.748 91.811 181.854C91.3393 180.965 90.6123 180.37 89.63 180.069C88.7317 179.794 87.9073 179.817 87.1568 180.138C86.4063 180.459 85.8498 181.046 85.4873 181.899L88.7616 182.903L88.4297 183.986L84.0597 182.647C84.0898 182.399 84.1383 182.166 84.2052 181.947ZM84.4454 177.401L80.5311 185.982L77.9066 184.784C76.5964 184.187 75.7262 183.312 75.2961 182.16C74.858 181.005 74.9305 179.788 75.5137 178.51C76.1004 177.224 76.9737 176.367 78.1334 175.941C79.2815 175.519 80.5107 175.606 81.8209 176.204L84.4454 177.401ZM79.9096 184.424L82.8618 177.953L81.3398 177.259C80.3412 176.803 79.4249 176.728 78.5909 177.032C77.7532 177.345 77.103 178.009 76.6401 179.024C76.1809 180.03 76.1077 180.952 76.4205 181.79C76.7333 182.628 77.3891 183.274 78.3877 183.73L79.9096 184.424ZM66.5662 172.515C67.2706 171.402 68.162 170.724 69.2404 170.482C70.4802 170.165 71.7048 170.389 72.9142 171.155C74.0717 171.887 74.7975 172.908 75.0916 174.217C75.3857 175.525 75.1617 176.766 74.4197 177.938C73.6776 179.11 72.6523 179.843 71.3438 180.138C70.0352 180.432 68.8022 180.212 67.6447 179.48C67.0586 179.109 66.5715 178.655 66.1837 178.118C65.7958 177.582 65.5547 177.019 65.4603 176.429L66.6598 176.159C66.7168 176.611 66.8903 177.043 67.1802 177.455C67.458 177.87 67.8195 178.218 68.2647 178.5C69.1328 179.05 70.0575 179.214 71.0389 178.994C72.0176 178.761 72.7958 178.188 73.3735 177.276C73.9512 176.363 74.1358 175.415 73.9273 174.431C73.7067 173.449 73.1624 172.684 72.2943 172.134C71.5004 171.632 70.6991 171.436 69.8905 171.548C69.0819 171.66 68.3903 172.079 67.8155 172.807L70.7092 174.638L70.1034 175.595L66.2414 173.151C66.3358 172.92 66.444 172.708 66.5662 172.515ZM62.1913 168.38L64.7311 165.527L65.6362 166.333L59.3655 173.377L56.9649 171.24C56.3549 170.697 56.0178 170.032 55.9534 169.246C55.8825 168.454 56.1069 167.766 56.6266 167.183C57.1579 166.586 57.8181 166.28 58.6071 166.265C59.3831 166.239 60.0793 166.5 60.6958 167.049L62.1913 168.38ZM59.231 171.705L61.4206 169.246L59.9054 167.897C59.5447 167.576 59.1383 167.432 58.6861 167.464C58.2274 167.491 57.8492 167.671 57.5514 168.006C57.2594 168.334 57.1268 168.727 57.1534 169.186C57.1677 169.645 57.3552 170.035 57.7159 170.357L59.231 171.705ZM58.5618 162.489C58.7936 162.275 58.8972 161.999 58.8727 161.662C58.8421 161.319 58.7045 161.016 58.4597 160.752C58.1134 160.378 57.6675 160.175 57.1219 160.142C56.5704 160.103 56.1079 160.256 55.7344 160.602C55.7722 161.082 56.0209 161.57 56.4807 162.066C56.815 162.426 57.1825 162.649 57.5832 162.732C57.978 162.809 58.3042 162.728 58.5618 162.489ZM54.0574 164.528C53.4485 163.871 53.1449 163.189 53.1469 162.48C53.1424 161.778 53.446 161.143 54.0577 160.576L56.9748 157.872L57.7629 158.722L57.106 159.331L57.1419 159.369C58.0231 159.235 58.7473 159.473 59.3144 160.085C59.798 160.607 60.0494 161.188 60.0687 161.829C60.082 162.463 59.8568 162.995 59.3932 163.425C58.9038 163.879 58.3441 164.056 57.714 163.958C57.0779 163.853 56.4733 163.492 55.9002 162.873C55.4106 162.345 55.1042 161.821 54.981 161.301L54.7782 161.489C54.4691 161.775 54.3217 162.14 54.3361 162.581C54.344 163.029 54.5002 163.417 54.8047 163.745C55.2644 164.241 55.8379 164.44 56.5251 164.342L56.7578 165.581C55.7397 165.723 54.8395 165.372 54.0574 164.528ZM54.7159 154.94C55.0444 155.352 55.1911 155.796 55.1561 156.273C55.1156 156.744 54.8715 157.163 54.4238 157.531L51.6021 159.781L52.3084 160.667L51.4433 161.357L50.737 160.471L49.1923 161.703L48.4368 160.756L49.9815 159.524L48.996 158.288L49.8611 157.598L50.8466 158.834L53.3594 156.83C53.6958 156.562 53.8738 156.313 53.8933 156.084C53.906 155.861 53.8467 155.667 53.7153 155.502C53.655 155.426 53.5907 155.36 53.5222 155.302C53.4414 155.243 53.3626 155.193 53.2859 155.153L53.8922 154.181C54.1785 154.357 54.4531 154.61 54.7159 154.94ZM48.0376 156.977L47.3938 156.013L48.1386 155.515L48.1093 155.471C47.744 155.494 47.3689 155.406 46.9839 155.209C46.5941 155.005 46.2845 154.731 46.0553 154.388C45.6163 153.731 45.4696 153.1 45.6152 152.496C45.7486 151.89 46.1622 151.355 46.8559 150.891L50.2294 148.638L50.9025 149.646L47.5947 151.855C46.733 152.462 46.59 153.197 47.1655 154.058C47.4338 154.46 47.8225 154.686 48.3315 154.737C48.8333 154.792 49.3105 154.669 49.7633 154.367L52.7315 152.384L53.4046 153.392L48.0376 156.977ZM47.4575 147.796C47.7355 147.646 47.9045 147.404 47.9645 147.072C48.0203 146.733 47.9625 146.405 47.7911 146.088C47.5487 145.64 47.1674 145.332 46.6473 145.164C46.1229 144.989 45.6368 145.022 45.1889 145.265C45.106 145.739 45.2255 146.273 45.5473 146.868C45.7814 147.3 46.0821 147.607 46.4494 147.788C46.8126 147.96 47.1486 147.963 47.4575 147.796ZM42.5875 148.649C42.1612 147.862 42.0371 147.125 42.2153 146.44C42.3857 145.758 42.8378 145.219 43.5714 144.822L47.0699 142.929L47.6216 143.948L46.8338 144.374L46.8589 144.421C47.7459 144.51 48.3879 144.921 48.7849 145.655C49.1234 146.28 49.2223 146.906 49.0815 147.531C48.9365 148.149 48.586 148.608 48.0299 148.909C47.443 149.227 46.8566 149.26 46.2709 149.007C45.6809 148.748 45.1854 148.247 44.7841 147.506C44.4414 146.872 44.2751 146.288 44.2853 145.754L44.042 145.885C43.6713 146.086 43.438 146.402 43.342 146.833C43.2382 147.269 43.2929 147.684 43.506 148.077C43.8279 148.672 44.3338 149.007 45.0239 149.083L44.9409 150.341C43.9195 150.225 43.135 149.661 42.5875 148.649ZM45.2837 139.014L36.4261 142.252L35.4356 139.543C34.941 138.19 34.9527 136.957 35.4707 135.842C35.9856 134.718 36.9028 133.916 38.2224 133.433C39.5502 132.948 40.7731 132.968 41.8911 133.494C42.9979 134.015 43.7985 134.952 44.2931 136.304L45.2837 139.014ZM37.0986 140.716L43.7789 138.274L43.2044 136.702C42.8275 135.672 42.2377 134.966 41.435 134.587C40.6241 134.21 39.695 134.213 38.6476 134.596C37.6084 134.976 36.9005 135.571 36.5238 136.382C36.1471 137.193 36.1473 138.114 36.5242 139.145L37.0986 140.716ZM41.963 128.217C42.1863 129.139 42.0545 129.975 41.5676 130.725C41.0808 131.475 40.3552 131.967 39.3908 132.201C38.435 132.433 37.571 132.335 36.7989 131.907C36.0182 131.482 35.5183 130.817 35.2992 129.912C35.0738 128.982 35.198 128.171 35.6716 127.478C36.1346 126.778 36.9081 126.297 37.9919 126.035L38.1231 126.016L39.317 130.945C39.9273 130.779 40.3727 130.454 40.6531 129.971C40.9335 129.487 41.0076 128.972 40.8753 128.426C40.6933 127.675 40.1752 127.177 39.3208 126.932L39.5786 125.759C40.1759 125.912 40.6849 126.204 41.1056 126.636C41.5242 127.058 41.81 127.585 41.963 128.217ZM38.3223 131.091L37.4509 127.494C37.024 127.633 36.7089 127.899 36.5059 128.292C36.2922 128.678 36.2505 129.14 36.3807 129.678C36.4882 130.121 36.7178 130.472 37.0694 130.73C37.419 130.98 37.8367 131.1 38.3223 131.091ZM40.4411 121.402L40.617 122.601L34.6095 126.118L34.4184 124.815L39.0955 122.212L39.0916 122.186L33.8603 121.01L33.673 119.733L40.4411 121.402ZM35.8974 116.976L39.9348 116.749L40.0027 117.959L30.5865 118.487L30.2779 112.99L31.4352 112.925L31.6758 117.212L34.7664 117.039L34.5493 113.173L35.6803 113.109L35.8974 116.976ZM40.0244 108.982C39.9901 109.93 39.6371 110.699 38.9655 111.29C38.2938 111.881 37.4622 112.158 36.4706 112.123C35.4877 112.087 34.6824 111.759 34.0546 111.139C33.4181 110.518 33.1167 109.743 33.1503 108.813C33.185 107.856 33.524 107.108 34.1674 106.569C34.8023 106.021 35.677 105.767 36.7915 105.808L36.9227 105.825L36.7392 110.893C37.3716 110.899 37.8882 110.706 38.289 110.317C38.6897 109.927 38.9003 109.451 38.9206 108.89C38.9486 108.118 38.5844 107.498 37.828 107.031L38.3936 105.971C38.9272 106.28 39.3382 106.699 39.6266 107.228C39.9153 107.748 40.0479 108.333 40.0244 108.982ZM35.7421 110.765L35.876 107.066C35.4272 107.085 35.052 107.256 34.7503 107.579C34.4402 107.893 34.2751 108.326 34.2551 108.879C34.2386 109.335 34.3647 109.735 34.6334 110.079C34.9025 110.414 35.272 110.642 35.7421 110.765ZM38.8547 99.7937C39.4122 99.8647 39.8515 100.168 40.1727 100.705C40.4939 101.242 40.6074 101.88 40.5131 102.621C40.4311 103.265 40.1935 103.81 39.8004 104.256C39.3985 104.701 38.9099 104.992 38.3345 105.132L38.0136 104.002C38.4168 103.894 38.7462 103.706 39.0017 103.437C39.2495 103.159 39.3962 102.841 39.4417 102.484C39.4905 102.101 39.4482 101.772 39.3148 101.499C39.1826 101.216 39.0032 101.061 38.7767 101.032C38.3673 100.98 38.0269 101.255 37.7554 101.858L37.3413 102.921C36.8691 104.126 36.1888 104.673 35.3003 104.56C34.7166 104.485 34.2806 104.191 33.992 103.676C33.6958 103.151 33.5949 102.519 33.6891 101.778C33.7612 101.212 33.9611 100.72 34.2888 100.301C34.6176 99.874 35.0201 99.5977 35.4964 99.4724L35.8043 100.6C35.5187 100.688 35.2841 100.862 35.1006 101.122C34.9094 101.372 34.7922 101.667 34.7489 102.006C34.709 102.32 34.7514 102.613 34.876 102.886C35.0018 103.149 35.1779 103.296 35.4044 103.325C35.7702 103.371 36.0754 103.06 36.3198 102.392L36.6911 101.457C37.1666 100.225 37.8878 99.6706 38.8547 99.7937ZM41.3972 96.6433C41.2927 97.1597 41.0464 97.5578 40.6582 97.8376C40.2719 98.1088 39.7938 98.1912 39.224 98.0849L35.6866 97.3689L35.4619 98.4792L34.3775 98.2597L34.6022 97.1495L32.6657 96.7575L32.906 95.5698L34.8426 95.9617L35.1561 94.4125L36.2406 94.632L35.927 96.1812L39.0771 96.8188C39.4988 96.9041 39.8037 96.8807 39.9917 96.7485C40.1711 96.6146 40.2817 96.4444 40.3235 96.2378C40.3427 96.1431 40.3524 96.051 40.3526 95.9615C40.3459 95.8616 40.3332 95.7694 40.3144 95.685L41.4488 95.5248C41.498 95.8573 41.4808 96.2301 41.3972 96.6433ZM43.1312 86.2044L44.2314 86.5691L42.4244 92.0203L41.2741 91.639L39.7697 88.6842C39.2571 87.6909 38.8603 86.9904 38.5791 86.5827C38.2896 86.1722 37.9365 85.8979 37.5198 85.7597C37.1447 85.6354 36.7754 85.6749 36.412 85.8782C36.0485 86.0815 35.7908 86.4124 35.6389 86.8708C35.509 87.2626 35.5138 87.6388 35.6533 87.9996C35.7927 88.3604 36.0153 88.6377 36.3211 88.8315L35.5479 89.7409C35.078 89.4001 34.7426 88.9327 34.5417 88.3388C34.3324 87.7422 34.3342 87.1229 34.5469 86.4811C34.8039 85.7059 35.2556 85.1387 35.902 84.7794C36.5484 84.4201 37.2175 84.3551 37.9093 84.5845C38.7345 84.858 39.4758 85.6079 40.1332 86.8342L41.8174 90.1678L43.1312 86.2044ZM40.4474 83.852C39.1978 83.2906 38.307 82.5199 37.7751 81.5397C37.2431 80.5595 37.1948 79.5847 37.6302 78.6155C38.0656 77.6463 38.8304 77.0368 39.9245 76.787C41.0106 76.5337 42.1744 76.6859 43.416 77.2436C44.6495 77.7978 45.5403 78.5685 46.0883 79.5559C46.6202 80.5362 46.6685 81.5109 46.2331 82.4801C45.7977 83.4493 45.037 84.0606 43.9509 84.314C42.8488 84.5601 41.6809 84.4061 40.4474 83.852ZM42.9086 78.3731C41.9634 77.9485 41.0965 77.7997 40.3078 77.9267C39.5227 78.0457 38.9826 78.4337 38.6876 79.0905C38.3925 79.7473 38.4612 80.4087 38.8937 81.0747C39.3225 81.7487 40.0095 82.2979 40.9547 82.7225C41.8999 83.1471 42.7709 83.2977 43.5676 83.1743C44.3446 83.0517 44.8807 82.6619 45.1758 82.0051C45.4708 81.3483 45.4021 80.6869 44.9697 80.0209C44.5328 79.3433 43.8458 78.7941 42.9086 78.3731ZM49.7393 72.8833L50.7413 73.4662L47.8534 78.4302L46.806 77.8208L45.9403 74.62C45.6426 73.5427 45.398 72.7756 45.2066 72.3188C45.0076 71.8576 44.7183 71.5167 44.3388 71.2959C43.9973 71.0972 43.6278 71.06 43.2303 71.1843C42.8329 71.3087 42.5127 71.5796 42.2699 71.9971C42.0623 72.3538 41.9898 72.723 42.0522 73.1048C42.1146 73.4865 42.2755 73.8036 42.5349 74.0561L41.5915 74.7873C41.2016 74.3573 40.9693 73.831 40.8946 73.2085C40.8123 72.5816 40.9412 71.9759 41.2812 71.3914C41.6919 70.6855 42.2504 70.2232 42.9568 70.0042C43.6632 69.7853 44.3314 69.8591 44.9614 70.2256C45.7129 70.6628 46.2844 71.5489 46.6759 72.8841L47.6397 76.4925L49.7393 72.8833ZM52.5209 66.0573C53.2198 66.5594 53.6305 67.2219 53.7528 68.045C53.8752 68.8681 53.6802 69.6363 53.1679 70.3495C52.7581 70.92 52.2083 71.309 51.5187 71.5164C50.8292 71.7239 50.1275 71.6847 49.4137 71.399L49.6908 70.2682C50.1955 70.4686 50.6726 70.5194 51.122 70.4206C51.5766 70.3146 51.9396 70.0726 52.2111 69.6946C52.539 69.2382 52.6663 68.7674 52.5931 68.2823C52.5178 67.785 52.2591 67.3775 51.817 67.0599C51.3676 66.7371 50.8953 66.6195 50.4 66.707C49.9098 66.7874 49.5033 67.0522 49.1806 67.5015C48.8066 68.0221 48.7224 68.5834 48.928 69.1852L47.7855 69.8727L44.4114 66.7355L47.1701 62.8949L48.1116 63.5711L45.9445 66.588L47.8492 68.3616L47.8906 68.3265C47.8595 67.7527 48.0309 67.2055 48.4049 66.6849C48.8762 66.0287 49.5076 65.6389 50.2991 65.5155C51.0956 65.3849 51.8362 65.5655 52.5209 66.0573ZM54.5912 61.3314C54.9169 61.6125 55.099 61.9727 55.1376 62.4119C55.1694 62.8454 55.042 63.2283 54.7551 63.5607C54.474 63.8864 54.1138 64.0686 53.6746 64.1071C53.2345 64.1332 52.8515 64.0058 52.5258 63.7246C52.1934 63.4378 52.0112 63.0776 51.9794 62.6441C51.9532 62.204 52.0807 61.8211 52.3618 61.4953C52.6487 61.1629 53.0089 60.9808 53.4423 60.9489C53.8758 60.917 54.2588 61.0445 54.5912 61.3314ZM62.6977 53.4726C63.5972 54.4348 64.0284 55.4681 63.9913 56.5728C63.9855 57.8524 63.4599 58.981 62.4143 59.9585C61.4137 60.8941 60.2431 61.3393 58.9027 61.2942C57.5623 61.2491 56.4183 60.7199 55.4707 59.7064C54.5232 58.6929 54.072 57.5159 54.117 56.1755C54.1621 54.8351 54.685 53.6971 55.6856 52.7615C56.1924 52.2878 56.7542 51.9308 57.3711 51.6906C57.988 51.4504 58.5938 51.3589 59.1883 51.4162L59.1469 52.6449C58.6954 52.5863 58.2337 52.6453 57.7618 52.822C57.2903 52.9863 56.8621 53.2484 56.4772 53.6082C55.7267 54.3099 55.3346 55.1634 55.3008 56.1687C55.2794 57.1745 55.6375 58.0718 56.3752 58.8608C57.1128 59.6498 57.9841 60.0674 58.989 60.1136C59.9943 60.1474 60.8722 59.8135 61.6227 59.1118C62.3091 58.4701 62.7 57.7439 62.7956 56.9333C62.8912 56.1226 62.6595 55.3476 62.1003 54.6081L59.5987 56.9469L58.8251 56.1195L62.1638 52.998C62.3638 53.1476 62.5417 53.3058 62.6977 53.4726ZM66.5079 55.9585L61.0474 48.2691L63.3993 46.5989C64.5735 45.7651 65.7667 45.4509 66.9788 45.6564C68.1981 45.8568 69.2145 46.5297 70.028 47.6753C70.8466 48.828 71.1495 50.013 70.9369 51.2302C70.7263 52.4352 70.034 53.4546 68.8598 54.2884L66.5079 55.9585ZM62.7066 48.5125L66.8248 54.3118L68.1887 53.3433C69.0836 52.7078 69.6084 51.9528 69.7629 51.0784C69.9123 50.1969 69.6642 49.3014 69.0185 48.3922C68.3779 47.49 67.6168 46.9643 66.7352 46.8148C65.8537 46.6654 64.9654 46.9085 64.0705 47.544L62.7066 48.5125ZM79.6732 42.8836C80.2902 44.0473 80.4366 45.1574 80.1122 46.214C79.7725 47.4477 78.9703 48.3999 77.7057 49.0704C76.4955 49.7121 75.2493 49.8362 73.9671 49.4426C72.685 49.049 71.7189 48.2393 71.069 47.0135C70.419 45.7877 70.2908 44.5338 70.6844 43.2516C71.078 41.9695 71.88 41.0076 73.0902 40.3658C73.7031 40.0408 74.3387 39.843 74.9969 39.7723C75.6552 39.7015 76.2638 39.7714 76.8227 39.982L76.4619 41.1573C76.0413 40.9827 75.5802 40.9191 75.0785 40.9665C74.5805 41.0019 74.0987 41.1431 73.6332 41.3899C72.7255 41.8712 72.1241 42.5926 71.8289 43.5542C71.5456 44.5195 71.6569 45.4792 72.1629 46.4335C72.6688 47.3877 73.4008 48.0184 74.3588 48.3255C75.3204 48.6207 76.255 48.5276 77.1627 48.0463C77.9928 47.6062 78.5599 47.0073 78.8639 46.2498C79.1679 45.4922 79.1466 44.6835 78.8 43.8236L75.7744 45.428L75.2437 44.4272L79.2818 42.286C79.4358 42.4827 79.5662 42.6819 79.6732 42.8836ZM85.4236 41.1189L86.6417 44.7393L85.4932 45.1258L82.4856 36.1872L85.5318 35.1622C86.3058 34.9018 87.0501 34.9386 87.7647 35.2726C88.4876 35.6038 88.9737 36.1397 89.2229 36.8804C89.4777 37.6378 89.4159 38.3628 89.0374 39.0553C88.6756 39.7422 88.1035 40.2172 87.3212 40.4805L85.4236 41.1189ZM84.0038 36.8993L85.0539 40.0203L86.9765 39.3735C87.4343 39.2195 87.7611 38.9381 87.9571 38.5293C88.1615 38.1178 88.1922 37.6998 88.0494 37.2753C87.9094 36.8592 87.6336 36.5489 87.2221 36.3446C86.816 36.1291 86.3841 36.0984 85.9264 36.2524L84.0038 36.8993ZM92.3417 40.8857C92.4137 41.1935 92.602 41.42 92.9065 41.5653C93.2195 41.7085 93.5513 41.7391 93.9019 41.6571C94.3978 41.5411 94.7952 41.2543 95.094 40.7966C95.4013 40.3369 95.497 39.8591 95.381 39.3632C94.9453 39.1585 94.3983 39.1331 93.7399 39.2871C93.2611 39.3991 92.8862 39.6085 92.6153 39.9154C92.3529 40.2203 92.2617 40.5437 92.3417 40.8857ZM92.8 35.9628C93.6722 35.7588 94.4155 35.8329 95.03 36.1852C95.6424 36.529 96.0437 37.107 96.2336 37.9193L97.1396 41.7926L96.0109 42.0566L95.8069 41.1845L95.7556 41.1965C95.4363 42.0287 94.8704 42.5398 94.0581 42.7298C93.3655 42.8918 92.7361 42.8226 92.1698 42.5221C91.6121 42.2197 91.2613 41.7607 91.1173 41.145C90.9653 40.4952 91.088 39.9209 91.4854 39.4221C91.8913 38.9214 92.5047 38.575 93.3255 38.383C94.0267 38.219 94.6338 38.2123 95.147 38.3628L95.084 38.0935C94.988 37.683 94.7445 37.3747 94.3536 37.1686C93.9607 36.9539 93.5462 36.8975 93.1101 36.9995C92.4518 37.1535 91.9952 37.5534 91.7404 38.1991L90.5485 37.788C90.9294 36.8332 91.6799 36.2248 92.8 35.9628ZM100.775 41.3106C100.254 41.3882 99.7956 41.2922 99.4003 41.0226C99.0137 40.7517 98.7733 40.3303 98.6792 39.7584L98.1474 36.1887L97.027 36.3556L96.864 35.2612L97.9844 35.0943L97.6933 33.1401L98.8919 32.9615L99.183 34.9157L100.746 34.6828L100.909 35.7772L99.346 36.0101L99.8196 39.1889C99.883 39.6145 100.009 39.8932 100.197 40.025C100.384 40.148 100.582 40.194 100.79 40.163C100.886 40.1487 100.976 40.1265 101.06 40.0962C101.152 40.0559 101.234 40.0125 101.307 39.9661L101.844 40.9782C101.548 41.1376 101.192 41.2484 100.775 41.3106ZM102.352 34.5079L103.508 34.4279L103.57 35.3215L103.623 35.3178C103.785 34.9897 104.047 34.7075 104.409 34.4712C104.78 34.2343 105.171 34.1017 105.583 34.0732C106.371 34.0187 106.992 34.2046 107.444 34.6311C107.904 35.0482 108.163 35.6729 108.22 36.5051L108.5 40.5523L107.291 40.6359L107.017 36.6675C106.918 35.6181 106.351 35.1291 105.318 35.2006C104.836 35.2339 104.446 35.4589 104.15 35.8755C103.852 36.2834 103.722 36.7589 103.76 37.302L104.006 40.8631L102.797 40.9467L102.352 34.5079ZM110.604 38.5666C110.596 38.8827 110.721 39.1493 110.979 39.3665C111.246 39.584 111.56 39.6972 111.92 39.7062C112.429 39.7189 112.885 39.5415 113.29 39.1738C113.703 38.8064 113.916 38.3681 113.929 37.859C113.559 37.5511 113.036 37.3887 112.36 37.3719C111.868 37.3596 111.453 37.4678 111.113 37.6965C110.782 37.9255 110.613 38.2155 110.604 38.5666ZM112.288 33.918C113.183 33.9403 113.884 34.1994 114.39 34.6951C114.896 35.1821 115.139 35.8425 115.118 36.6765L115.019 40.6531L113.86 40.6242L113.882 39.7288L113.829 39.7275C113.311 40.4524 112.634 40.8045 111.8 40.7837C111.089 40.7659 110.498 40.5404 110.025 40.107C109.562 39.6738 109.338 39.1412 109.354 38.5091C109.37 37.8419 109.634 37.3171 110.144 36.9345C110.663 36.5522 111.344 36.3715 112.187 36.3925C112.906 36.4105 113.496 36.557 113.954 36.8319L113.961 36.5554C113.972 36.134 113.814 35.7743 113.488 35.4763C113.161 35.1695 112.774 35.0106 112.327 34.9994C111.651 34.9825 111.108 35.2545 110.699 35.8152L109.649 35.1171C110.258 34.289 111.138 33.8893 112.288 33.918ZM119.284 41.0524L120.923 31.7649L123.764 32.2663C125.182 32.5165 126.244 33.1453 126.949 34.1525C127.662 35.1612 127.897 36.3574 127.653 37.741C127.407 39.1332 126.777 40.1811 125.761 40.8846C124.755 41.581 123.543 41.8041 122.125 41.5538L119.284 41.0524ZM121.915 33.117L120.679 40.1216L122.326 40.4123C123.407 40.6031 124.313 40.4464 125.044 39.9423C125.777 39.4295 126.24 38.624 126.434 37.5258C126.626 36.4362 126.466 35.5252 125.953 34.7926C125.44 34.0601 124.643 33.5985 123.563 33.4077L121.915 33.117ZM130.33 43.5784C129.419 43.3157 128.758 42.787 128.347 41.9923C127.937 41.1976 127.869 40.3236 128.144 39.3701C128.416 38.4251 128.929 37.7232 129.683 37.2642C130.439 36.7969 131.265 36.6921 132.159 36.95C133.079 37.2152 133.722 37.7252 134.089 38.4799C134.467 39.2287 134.502 40.1389 134.193 41.2104L134.144 41.3333L129.271 39.9283C129.113 40.5407 129.174 41.0885 129.455 41.5716C129.737 42.0548 130.147 42.3742 130.687 42.5299C131.43 42.744 132.119 42.5406 132.755 41.9198L133.647 42.7253C133.217 43.1681 132.711 43.4654 132.128 43.6172C131.554 43.7714 130.954 43.7585 130.33 43.5784ZM129.637 38.992L133.194 40.0175C133.284 39.5774 133.209 39.172 132.969 38.8011C132.739 38.4242 132.359 38.1591 131.827 38.0058C131.388 37.8793 130.97 37.9048 130.571 38.0824C130.181 38.2624 129.87 38.5656 129.637 38.992ZM137.001 45.633L135.872 45.1914L135.795 38.2306L137.022 38.7106L136.964 44.0629L136.989 44.0725L140.604 40.1121L141.806 40.5825L137.001 45.633ZM143.098 43.8799L141.296 47.4998L140.211 46.9596L144.414 38.5172L149.343 40.9712L148.827 42.0088L144.983 40.0949L143.603 42.8658L147.07 44.5918L146.565 45.6059L143.098 43.8799ZM147.987 51.4242C147.182 50.9235 146.689 50.235 146.51 49.3586C146.331 48.4823 146.504 47.6227 147.028 46.7799C147.547 45.9446 148.231 45.4086 149.082 45.172C149.936 44.9278 150.759 45.0514 151.55 45.5428C152.362 46.048 152.843 46.7138 152.991 47.54C153.152 48.3633 152.937 49.2486 152.349 50.1958L152.268 50.3007L147.961 47.6237C147.642 48.17 147.552 48.7138 147.691 49.2552C147.83 49.7966 148.139 50.2156 148.616 50.5123C149.272 50.9202 149.991 50.9119 150.772 50.4873L151.411 51.505C150.877 51.8144 150.309 51.9629 149.707 51.9504C149.112 51.9426 148.539 51.7672 147.987 51.4242ZM148.568 46.8222L151.711 48.776C151.918 48.3771 151.956 47.9665 151.825 47.5443C151.707 47.1192 151.413 46.7606 150.943 46.4686C150.555 46.2275 150.146 46.1383 149.714 46.2008C149.29 46.2679 148.907 46.4751 148.568 46.8222ZM156.561 54.9647C156.224 55.4144 155.743 55.6463 155.117 55.6605C154.492 55.6747 153.881 55.4579 153.284 55.0102C152.764 54.6204 152.407 54.1445 152.214 53.5826C152.026 53.0136 152.013 52.4446 152.177 51.8755L153.317 52.1545C153.212 52.5585 153.213 52.9378 153.32 53.2926C153.44 53.6455 153.644 53.93 153.932 54.146C154.241 54.3777 154.547 54.5032 154.851 54.5225C155.162 54.547 155.386 54.4679 155.523 54.2853C155.77 53.955 155.699 53.523 155.309 52.9892L154.59 52.1042C153.775 51.098 153.636 50.2366 154.173 49.52C154.526 49.0492 154.997 48.8155 155.588 48.8189C156.19 48.8206 156.79 49.0452 157.387 49.4929C157.844 49.8353 158.173 50.2524 158.375 50.7441C158.584 51.241 158.626 51.7275 158.499 52.2035L157.366 51.9139C157.431 51.6224 157.396 51.3326 157.261 51.0446C157.138 50.7549 156.939 50.5073 156.665 50.3019C156.412 50.1122 156.137 50.0043 155.838 49.978C155.547 49.957 155.332 50.0378 155.195 50.2205C154.974 50.5156 155.094 50.9344 155.554 51.477L156.184 52.2619C157.02 53.2839 157.146 54.1848 156.561 54.9647ZM158 58.7264C157.605 58.3774 157.384 57.9648 157.336 57.4887C157.295 57.0185 157.463 56.5634 157.84 56.1234L160.231 53.4197L159.382 52.6693L160.115 51.8405L160.964 52.5909L162.273 51.1108L163.18 51.9135L161.871 53.3936L163.056 54.4406L162.323 55.2695L161.139 54.2225L159.01 56.6301C158.725 56.9524 158.592 57.2281 158.612 57.457C158.639 57.6793 158.731 57.8603 158.888 57.9999C158.961 58.0639 159.036 58.1184 159.113 58.1634C159.203 58.2077 159.289 58.2428 159.372 58.2689L158.942 59.331C158.63 59.2071 158.316 59.0056 158 58.7264ZM166.208 65.436L165.344 66.2092L161.513 61.9309L162.416 61.1225L165.728 61.2865C166.845 61.3357 167.65 61.3396 168.143 61.2985C168.643 61.2514 169.057 61.0814 169.384 60.7886C169.678 60.5249 169.828 60.1849 169.832 59.7685C169.836 59.3521 169.677 58.964 169.355 58.6042C169.08 58.2967 168.751 58.1138 168.369 58.0554C167.986 57.997 167.635 58.0523 167.315 58.2212L166.91 57.0981C167.44 56.8599 168.012 56.8013 168.627 56.9223C169.249 57.0374 169.785 57.3469 170.236 57.8506C170.781 58.459 171.049 59.1329 171.039 59.8724C171.029 60.6119 170.753 61.2247 170.21 61.7109C169.562 62.2909 168.543 62.5611 167.152 62.5217L163.423 62.3254L166.208 65.436ZM169.582 64.2787C170.693 63.478 171.807 63.0928 172.921 63.123C174.036 63.1532 174.904 63.5994 175.525 64.4616C176.146 65.3237 176.291 66.2908 175.959 67.363C175.635 68.43 174.921 69.3613 173.816 70.1568C172.719 70.9473 171.606 71.3325 170.477 71.3125C169.362 71.2822 168.494 70.8361 167.873 69.9739C167.252 69.1118 167.103 68.1472 167.428 67.0802C167.767 66.0029 168.485 65.0691 169.582 64.2787ZM173.092 69.1522C173.933 68.5466 174.496 67.8706 174.781 67.1243C175.071 66.385 175.006 65.7233 174.585 65.1391C174.164 64.5548 173.557 64.2832 172.764 64.3241C171.966 64.3579 171.146 64.6776 170.306 65.2833C169.465 65.8889 168.898 66.5675 168.606 67.3189C168.323 68.053 168.392 68.7122 168.813 69.2964C169.234 69.8807 169.841 70.1523 170.634 70.1114C171.439 70.0724 172.259 69.7527 173.092 69.1522ZM174.472 77.8142L173.47 78.3961L170.586 73.4296L171.634 72.8211L174.844 73.6536C175.927 73.9283 176.715 74.0955 177.206 74.1553C177.706 74.2107 178.145 74.1282 178.525 73.9077C178.867 73.7093 179.082 73.4067 179.17 72.9998C179.259 72.5929 179.182 72.1806 178.94 71.763C178.733 71.406 178.448 71.1602 178.085 71.0254C177.723 70.8907 177.367 70.8735 177.02 70.9739L176.851 69.7922C177.418 69.6663 177.99 69.725 178.568 69.9683C179.154 70.2072 179.616 70.619 179.955 71.2038C180.365 71.91 180.491 72.6242 180.331 73.3464C180.172 74.0685 179.777 74.6126 179.146 74.9785C178.395 75.415 177.342 75.4728 175.988 75.1521L172.376 74.2031L174.472 77.8142ZM179.023 83.6113C178.241 83.9697 177.462 83.9981 176.686 83.6967C175.911 83.3952 175.34 82.8453 174.975 82.0469C174.682 81.4083 174.616 80.738 174.778 80.0362C174.939 79.3345 175.321 78.7443 175.923 78.2658L176.768 79.0667C176.344 79.4059 176.063 79.7952 175.926 80.2345C175.793 80.6819 175.824 81.1171 176.017 81.5402C176.251 82.0511 176.597 82.395 177.055 82.5717C177.524 82.7527 178.006 82.7298 178.501 82.5031C179.004 82.2727 179.34 81.9207 179.51 81.4471C179.683 80.9814 179.654 80.4971 179.424 79.9942C179.157 79.4114 178.711 79.0602 178.086 78.9407L178.055 77.6076L182.452 76.2309L184.421 80.5299L183.368 81.0127L181.82 77.6357L179.336 78.4116L179.346 78.465C179.86 78.7222 180.25 79.1422 180.517 79.725C180.854 80.4594 180.88 81.201 180.595 81.9497C180.314 82.7063 179.79 83.2602 179.023 83.6113Z" fill="#1E1E1E"/>
</svg>
