<svg width="909" height="843" viewBox="0 0 909 843" fill="none" xmlns="http://www.w3.org/2000/svg">
<path d="M894.858 487.687C889.533 497.594 878.704 502.076 870.663 497.697C862.623 493.317 860.425 481.745 865.745 471.837" stroke="black" stroke-width="2.4462" stroke-linejoin="round"/>
<path d="M865.744 471.837C871.043 461.933 881.895 457.453 889.934 461.829C897.975 466.204 900.177 477.784 894.858 487.687" stroke="black" stroke-width="2.4462" stroke-linejoin="round"/>
<path d="M902.482 491.581C901.11 494.142 898.307 495.303 896.231 494.174C894.157 493.043 893.581 490.045 894.956 487.485M885.126 507.701C878.61 510.266 871.639 510.23 865.674 506.986C853.47 500.363 850.129 482.769 858.204 467.735" stroke="black" stroke-width="2.4462" stroke-linejoin="round"/>
<path d="M858.203 467.74C866.283 452.702 882.72 445.903 894.923 452.548C907.127 459.193 910.474 476.764 902.394 491.798" stroke="black" stroke-width="2.4462" stroke-linejoin="round"/>
<circle opacity="0.29" cx="459.3" cy="421.5" r="420.5" stroke="#F6BA04" stroke-width="2"/>
<g filter="url(#filter0_d_338_10348)">
<path d="M268.727 43.6937L267.038 46.1361C258.384 58.6523 255.564 74.2989 259.303 89.049L260.033 91.9273L257.591 90.2385C245.075 81.5844 229.428 78.7642 214.678 82.5039L211.8 83.2336L213.488 80.7912C222.142 68.275 224.963 52.6284 221.223 37.8784L220.493 35.0001L222.936 36.6888C235.452 45.3429 251.098 48.1631 265.849 44.4235L268.727 43.6937Z" fill="#F6BA04"/>
<path d="M258.16 89.4165C245.406 80.5981 229.462 77.7243 214.432 81.5349L214.139 81.609L214.31 81.3602C223.129 68.6064 226.003 52.6622 222.192 37.6322L222.118 37.338L222.367 37.5109C235.12 46.3292 251.065 49.2031 266.095 45.3924L266.389 45.3175L266.216 45.5671C257.398 58.3209 254.524 74.2651 258.334 89.2951L258.41 89.5885L258.16 89.4165Z" stroke="black" stroke-width="2"/>
</g>
<g filter="url(#filter1_d_338_10348)">
<path d="M691.727 784.694L690.038 787.136C681.384 799.652 678.564 815.299 682.303 830.049L683.033 832.927L680.591 831.238C668.074 822.584 652.428 819.764 637.678 823.504L634.799 824.234L636.488 821.791C645.142 809.275 647.963 793.628 644.223 778.878L643.493 776L645.936 777.689C658.452 786.343 674.098 789.163 688.848 785.423L691.727 784.694Z" fill="#F6BA04"/>
<path d="M681.16 830.416C668.406 821.598 652.462 818.724 637.432 822.535L637.138 822.609L637.31 822.36C646.129 809.606 649.002 793.662 645.192 778.632L645.118 778.338L645.367 778.511C658.12 787.329 674.065 790.203 689.095 786.392L689.389 786.317L689.216 786.567C680.398 799.321 677.524 815.265 681.334 830.295L681.409 830.588L681.16 830.416Z" stroke="black" stroke-width="2"/>
</g>
<g filter="url(#filter2_d_338_10348)">
<path d="M39.2136 287.076C61.7087 281.888 84.1507 295.917 89.3396 318.411C94.5281 340.906 80.4989 363.348 58.0037 368.537C35.5095 373.726 13.0673 359.696 7.87866 337.201C2.69027 314.707 16.7197 292.265 39.2136 287.076ZM20.6169 351.703C26.9769 359.14 36.1502 363.844 46.074 364.526C44.3538 363.02 42.7029 361.171 41.1521 359.063C38.9425 356.059 36.8719 352.447 35.0349 348.379L20.6169 351.703ZM40.0115 347.231C41.6069 350.63 43.3574 353.621 45.1804 356.1C47.355 359.056 49.5577 361.184 51.6179 362.443C53.6645 363.693 55.416 364.002 56.8806 363.664C58.3452 363.326 59.7839 362.281 61.0759 360.261C62.3765 358.227 63.4248 355.349 64.0847 351.739C64.6379 348.713 64.9012 345.257 64.8464 341.502L40.0115 347.231ZM69.823 340.355C69.9537 344.816 69.6741 348.97 69.0037 352.638C68.5331 355.212 67.859 357.598 66.9724 359.705C75.5947 354.746 81.7801 346.499 84.24 337.028L69.823 340.355ZM12.0125 323.865C11.5842 327.843 11.8009 331.959 12.7507 336.077C13.6946 340.17 15.2878 343.943 17.3953 347.316L33.1003 343.693C31.748 340.099 30.5772 336.234 29.6423 332.181C28.7018 328.103 28.0592 324.092 27.7019 320.247L12.0125 323.865ZM32.6228 319.112C32.9425 322.911 33.5625 326.931 34.5144 331.058C35.4605 335.159 36.6545 339.022 38.0203 342.559L64.5906 336.43C64.2691 332.652 63.6489 328.657 62.7029 324.556C61.751 320.429 60.5499 316.543 59.1736 312.988L32.6228 319.112ZM64.0935 311.854C65.4562 315.466 66.6343 319.354 67.575 323.432C68.5099 327.485 69.1508 331.473 69.5095 335.296L85.2126 331.673C85.6302 327.718 85.4115 323.628 84.4675 319.535C83.5176 315.417 81.9093 311.623 79.782 308.234L64.0935 311.854ZM30.2468 295.905C21.6473 300.851 15.4714 309.068 12.9978 318.507L27.3943 315.187C27.2688 310.752 27.5486 306.623 28.2156 302.975C28.6864 300.4 29.3597 298.013 30.2468 295.905ZM45.6013 293.17C43.5547 291.919 41.8033 291.611 40.3386 291.948C38.874 292.286 37.4345 293.331 36.1423 295.352C34.8417 297.386 33.7946 300.264 33.1345 303.874C32.5847 306.881 32.3196 310.312 32.3699 314.039L57.1775 308.318C55.5903 304.945 53.8501 301.976 52.0388 299.514C49.8643 296.557 47.6615 294.429 45.6013 293.17ZM51.1453 291.086C52.8653 292.592 54.5154 294.442 56.0662 296.55C58.2639 299.538 60.3244 303.128 62.1541 307.17L76.5496 303.849C70.1919 296.447 61.0418 291.766 51.1453 291.086Z" fill="#1E1E1E"/>
</g>
<g filter="url(#filter3_d_338_10348)">
<path d="M722.215 82.6731C728.341 79.7945 735.984 81.9669 739.441 87.4753L739.602 87.7401L739.608 87.7497L739.615 87.7616C742.969 93.4298 740.716 100.378 734.523 103.289L703.762 117.746C697.538 120.671 689.748 118.383 686.374 112.679L686.368 112.67L686.36 112.657L686.361 112.658C683.007 106.989 685.259 100.042 691.454 97.1304L722.215 82.6731Z" fill="#EA4335" stroke="black"/>
<path d="M721.6 81.6346C728.447 78.4173 737.016 80.9326 740.729 87.2099L740.728 87.2107L740.734 87.2194L740.741 87.2312L740.742 87.2313C744.435 93.4732 741.953 101.123 735.137 104.327L704.376 118.783C697.534 122 688.971 119.489 685.253 113.221L685.241 113.199L685.234 113.187L685.066 112.893C681.619 106.708 684.128 99.246 690.839 96.0919L721.6 81.6346ZM739.33 87.7513C736.016 82.1621 728.445 79.9676 722.403 82.807L691.642 97.2634C685.573 100.117 683.298 106.995 686.621 112.625L686.621 112.626L686.633 112.647L686.64 112.659C689.952 118.255 697.528 120.453 703.573 117.613L734.333 103.156C740.408 100.301 742.68 93.4139 739.348 87.7815L739.344 87.7729L739.33 87.7513Z" fill="#1E1E1E" stroke="black"/>
<path d="M688.212 99.3556C693.005 94.7781 701.122 94.6837 706.322 99.184L732.023 121.426C737.118 125.834 737.476 132.975 732.944 137.536L732.724 137.751L732.706 137.768L732.706 137.769C727.913 142.346 719.795 142.44 714.596 137.941L688.894 115.698C683.719 111.22 683.432 103.921 688.193 99.3717L688.204 99.3633L688.212 99.3556Z" fill="#4285F4" stroke="black"/>
<path d="M687.27 98.5404C692.545 93.5032 701.473 93.4 707.194 98.3508L732.896 120.592C738.588 125.519 738.909 133.55 733.673 138.56L733.655 138.576L733.647 138.584C728.373 143.622 719.444 143.725 713.723 138.775L688.023 116.533L687.984 116.499C682.326 111.566 682.02 103.556 687.253 98.5587L687.262 98.5491L687.27 98.5404ZM706.104 99.2603C701.111 94.9385 693.343 94.9559 688.623 99.2986L688.619 99.2981L688.462 99.4471L688.453 99.4557L688.444 99.4652C683.713 103.985 684.038 111.23 689.113 115.622L714.813 137.863C719.863 142.234 727.753 142.169 732.456 137.678L732.465 137.668L732.473 137.659C737.205 133.139 736.881 125.894 731.805 121.503L706.104 99.2603Z" fill="#1E1E1E" stroke="black"/>
<path d="M787.84 110.408C794.064 107.483 801.852 109.77 805.227 115.474L805.233 115.483L805.24 115.495L805.241 115.495C808.595 121.163 806.343 128.111 800.149 131.022L769.388 145.48C763.164 148.405 755.375 146.117 752 140.414L751.999 140.413L751.986 140.391C748.633 134.723 750.885 127.776 757.078 124.865L787.84 110.408Z" fill="#F9AB00" stroke="black"/>
<path d="M787.226 109.37C794.073 106.152 802.641 108.667 806.356 114.944L806.361 114.955L806.368 114.966C810.062 121.207 807.58 128.857 800.763 132.061L770.001 146.518C763.262 149.685 754.854 147.297 751.05 141.234L750.872 140.943L750.862 140.925L750.861 140.922L750.691 140.628C747.299 134.54 749.677 127.217 756.149 123.98L756.465 123.826L787.226 109.37ZM804.962 115.494C801.651 109.898 794.074 107.7 788.029 110.54L757.269 124.997C751.29 127.807 748.994 134.524 752.102 140.106L752.254 140.372L752.264 140.39L752.266 140.393C755.578 145.989 763.155 148.187 769.199 145.346L799.961 130.89C806.034 128.035 808.306 121.148 804.975 115.517L804.975 115.516L804.961 115.494L804.962 115.494Z" fill="#1E1E1E" stroke="black"/>
<path d="M758.901 90.3967C763.694 85.829 771.806 85.7385 777.003 90.2359L802.704 112.477C807.876 116.954 808.166 124.247 803.411 128.796L803.393 128.813L803.385 128.82C798.592 133.398 790.476 133.493 785.276 128.993L759.575 106.75C754.48 102.341 754.121 95.2009 758.654 90.6397L758.874 90.4246L758.883 90.415L758.901 90.3967Z" fill="#34A853" stroke="black"/>
<path d="M757.951 89.5889C763.226 84.5532 772.155 84.4521 777.875 89.4012L803.576 111.644C809.271 116.573 809.59 124.609 804.346 129.617L804.335 129.627L804.327 129.636C799.053 134.673 790.123 134.776 784.403 129.825L758.702 107.584C753.007 102.654 752.688 94.6184 757.933 89.609L757.935 89.6064L757.952 89.59L757.951 89.5889ZM776.784 90.3125C771.734 85.9417 763.845 86.0073 759.143 90.4985L759.125 90.5167C754.393 95.0365 754.718 102.282 759.792 106.673L785.493 128.916C790.543 133.287 798.432 133.219 803.133 128.728L803.152 128.712L803.153 128.711C807.884 124.191 807.56 116.946 802.486 112.554L776.784 90.3125Z" fill="#1E1E1E" stroke="black"/>
</g>
<g filter="url(#filter4_d_338_10348)">
<path d="M181.629 776.364C175.008 774.959 170.228 768.612 170.799 762.134L170.83 761.825L170.831 761.814L170.833 761.8C171.583 755.257 177.574 751.079 184.268 752.5L217.518 759.553C224.245 760.98 229.072 767.508 228.317 774.092L228.316 774.102L228.315 774.117L228.314 774.117C227.564 780.66 221.574 784.838 214.878 783.417L181.629 776.364Z" fill="#EA4335" stroke="black"/>
<path d="M181.492 777.563C174.092 775.993 168.781 768.813 169.612 761.567L169.613 761.567L169.614 761.557L169.615 761.543L169.614 761.542C170.44 754.337 177.038 749.739 184.406 751.301L217.655 758.355C225.05 759.923 230.36 767.096 229.538 774.337L229.534 774.362L229.532 774.375L229.489 774.711C228.501 781.722 221.995 786.155 214.741 784.617L181.492 777.563ZM171.054 761.981C170.32 768.437 175.03 774.758 181.56 776.144L214.808 783.198C221.369 784.589 227.336 780.48 228.087 773.986L228.088 773.985L228.092 773.961L228.093 773.947C228.833 767.487 224.121 761.159 217.588 759.773L184.339 752.72C177.774 751.327 171.803 755.444 171.058 761.946L171.056 761.955L171.054 761.981Z" fill="#1E1E1E" stroke="black"/>
<path d="M218.806 783.601C212.221 784.356 205.694 779.529 204.267 772.801L197.214 739.552C195.816 732.962 199.842 727.055 206.209 726.156L206.514 726.117L206.539 726.114L206.54 726.114C213.124 725.36 219.651 730.187 221.078 736.914L228.132 770.163C229.552 776.859 225.373 782.85 218.831 783.6L218.817 783.6L218.806 783.601Z" fill="#4285F4" stroke="black"/>
<path d="M219.064 784.82C211.818 785.649 204.639 780.34 203.069 772.939L196.015 739.69C194.453 732.325 199.047 725.73 206.246 724.899L206.271 724.897L206.282 724.896C213.528 724.065 220.707 729.376 222.277 736.776L229.33 770.024L229.34 770.075C230.872 777.423 226.278 783.993 219.089 784.816L219.076 784.818L219.064 784.82ZM204.487 772.872C205.857 779.332 212.059 784.01 218.444 783.399L218.447 783.401L218.662 783.377L218.674 783.376L218.687 783.374C225.188 782.629 229.303 776.657 227.911 770.092L220.858 736.844C219.472 730.31 213.144 725.598 206.684 726.338L206.67 726.34L206.659 726.342C200.158 727.087 196.04 733.057 197.434 739.623L204.487 772.872Z" fill="#1E1E1E" stroke="black"/>
<path d="M146.07 714.627C139.343 713.2 134.517 706.673 135.271 700.089L135.272 700.078L135.274 700.064L135.273 700.063C136.023 693.52 142.013 689.343 148.709 690.763L181.958 697.816C188.685 699.243 193.512 705.77 192.758 712.354L192.758 712.356L192.755 712.381C192.005 718.923 186.015 723.1 179.32 721.681L146.07 714.627Z" fill="#F9AB00" stroke="black"/>
<path d="M145.933 715.825C138.532 714.256 133.222 707.076 134.052 699.83L134.054 699.818L134.055 699.804C134.88 692.6 141.478 688.001 148.847 689.564L182.096 696.618C189.38 698.163 194.64 705.144 194.01 712.274L193.976 712.613L193.974 712.634L193.973 712.637L193.931 712.974C192.958 719.874 186.64 724.276 179.526 722.948L179.182 722.879L145.933 715.825ZM135.495 700.233C134.755 706.693 139.467 713.021 146 714.408L179.249 721.46C185.711 722.831 191.597 718.864 192.491 712.538L192.53 712.235L192.533 712.214L192.533 712.21C193.272 705.749 188.561 699.422 182.028 698.037L148.779 690.982C142.214 689.59 136.244 693.707 135.498 700.208L135.498 700.208L135.496 700.234L135.495 700.233Z" fill="#1E1E1E" stroke="black"/>
<path d="M157.052 748.054C150.473 748.799 143.953 743.973 142.527 737.25L135.473 704.002C134.054 697.31 138.227 691.322 144.764 690.567L144.789 690.564L144.8 690.564C151.384 689.809 157.911 694.635 159.338 701.362L166.391 734.612C167.789 741.202 163.763 747.11 157.396 748.009L157.09 748.047L157.077 748.049L157.052 748.054Z" fill="#34A853" stroke="black"/>
<path d="M157.321 749.271C150.076 750.099 142.898 744.788 141.328 737.389L134.275 704.139C132.712 696.771 137.31 690.173 144.515 689.348L144.529 689.347L144.541 689.345C151.787 688.515 158.966 693.825 160.536 701.226L167.59 734.475C169.153 741.843 164.554 748.44 157.348 749.266L157.345 749.267L157.321 749.269L157.321 749.271ZM142.747 737.321C144.133 743.854 150.461 748.566 156.921 747.826L156.946 747.823C163.447 747.078 167.564 741.106 166.171 734.542L159.118 701.292C157.733 694.759 151.404 690.049 144.944 690.789L144.919 690.791L144.919 690.791C138.418 691.537 134.301 697.507 135.693 704.072L142.747 737.321Z" fill="#1E1E1E" stroke="black"/>
</g>
<defs>
<filter id="filter0_d_338_10348" x="209.2" y="34.4001" width="66.1272" height="66.1271" filterUnits="userSpaceOnUse" color-interpolation-filters="sRGB">
<feFlood flood-opacity="0" result="BackgroundImageFix"/>
<feColorMatrix in="SourceAlpha" type="matrix" values="0 0 0 0 0 0 0 0 0 0 0 0 0 0 0 0 0 0 127 0" result="hardAlpha"/>
<feOffset dx="2" dy="4"/>
<feGaussianBlur stdDeviation="2.3"/>
<feComposite in2="hardAlpha" operator="out"/>
<feColorMatrix type="matrix" values="0 0 0 0 0 0 0 0 0 0 0 0 0 0 0 0 0 0 0.25 0"/>
<feBlend mode="normal" in2="BackgroundImageFix" result="effect1_dropShadow_338_10348"/>
<feBlend mode="normal" in="SourceGraphic" in2="effect1_dropShadow_338_10348" result="shape"/>
</filter>
<filter id="filter1_d_338_10348" x="632.199" y="775.4" width="66.1272" height="66.1272" filterUnits="userSpaceOnUse" color-interpolation-filters="sRGB">
<feFlood flood-opacity="0" result="BackgroundImageFix"/>
<feColorMatrix in="SourceAlpha" type="matrix" values="0 0 0 0 0 0 0 0 0 0 0 0 0 0 0 0 0 0 127 0" result="hardAlpha"/>
<feOffset dx="2" dy="4"/>
<feGaussianBlur stdDeviation="2.3"/>
<feComposite in2="hardAlpha" operator="out"/>
<feColorMatrix type="matrix" values="0 0 0 0 0 0 0 0 0 0 0 0 0 0 0 0 0 0 0.25 0"/>
<feBlend mode="normal" in2="BackgroundImageFix" result="effect1_dropShadow_338_10348"/>
<feBlend mode="normal" in="SourceGraphic" in2="effect1_dropShadow_338_10348" result="shape"/>
</filter>
<filter id="filter2_d_338_10348" x="4.86374e-05" y="281.198" width="97.2182" height="97.2183" filterUnits="userSpaceOnUse" color-interpolation-filters="sRGB">
<feFlood flood-opacity="0" result="BackgroundImageFix"/>
<feColorMatrix in="SourceAlpha" type="matrix" values="0 0 0 0 0 0 0 0 0 0 0 0 0 0 0 0 0 0 127 0" result="hardAlpha"/>
<feOffset dy="2"/>
<feGaussianBlur stdDeviation="3.4"/>
<feComposite in2="hardAlpha" operator="out"/>
<feColorMatrix type="matrix" values="0 0 0 0 0 0 0 0 0 0 0 0 0 0 0 0 0 0 0.27 0"/>
<feBlend mode="normal" in2="BackgroundImageFix" result="effect1_dropShadow_338_10348"/>
<feBlend mode="normal" in="SourceGraphic" in2="effect1_dropShadow_338_10348" result="shape"/>
</filter>
<filter id="filter3_d_338_10348" x="675.023" y="78.7339" width="135.555" height="78.6853" filterUnits="userSpaceOnUse" color-interpolation-filters="sRGB">
<feFlood flood-opacity="0" result="BackgroundImageFix"/>
<feColorMatrix in="SourceAlpha" type="matrix" values="0 0 0 0 0 0 0 0 0 0 0 0 0 0 0 0 0 0 127 0" result="hardAlpha"/>
<feOffset dx="-3" dy="4"/>
<feGaussianBlur stdDeviation="2.5"/>
<feComposite in2="hardAlpha" operator="out"/>
<feColorMatrix type="matrix" values="0 0 0 0 0 0 0 0 0 0 0 0 0 0 0 0 0 0 0.22 0"/>
<feBlend mode="normal" in2="BackgroundImageFix" result="effect1_dropShadow_338_10348"/>
<feBlend mode="normal" in="SourceGraphic" in2="effect1_dropShadow_338_10348" result="shape"/>
</filter>
<filter id="filter4_d_338_10348" x="125.466" y="687.759" width="106.668" height="106.662" filterUnits="userSpaceOnUse" color-interpolation-filters="sRGB">
<feFlood flood-opacity="0" result="BackgroundImageFix"/>
<feColorMatrix in="SourceAlpha" type="matrix" values="0 0 0 0 0 0 0 0 0 0 0 0 0 0 0 0 0 0 127 0" result="hardAlpha"/>
<feOffset dx="-3" dy="4"/>
<feGaussianBlur stdDeviation="2.5"/>
<feComposite in2="hardAlpha" operator="out"/>
<feColorMatrix type="matrix" values="0 0 0 0 0 0 0 0 0 0 0 0 0 0 0 0 0 0 0.22 0"/>
<feBlend mode="normal" in2="BackgroundImageFix" result="effect1_dropShadow_338_10348"/>
<feBlend mode="normal" in="SourceGraphic" in2="effect1_dropShadow_338_10348" result="shape"/>
</filter>
</defs>
</svg>
