<svg width="711" height="691" viewBox="0 0 711 691" fill="none" xmlns="http://www.w3.org/2000/svg">
<circle opacity="0.29" cx="355" cy="345" r="313" stroke="#E0A900" stroke-width="2"/>
<path d="M383.109 32.1536L385.993 19.667C386.019 19.5566 386.022 19.4422 386.003 19.3304C385.984 19.2187 385.943 19.1118 385.883 19.0159C385.76 18.8217 385.565 18.6837 385.341 18.6319L378.632 17.0825L380.076 10.8333C380.101 10.7228 380.104 10.6083 380.085 10.4965C380.066 10.3847 380.025 10.2778 379.965 10.1819C379.842 9.9874 379.647 9.84938 379.423 9.79796L366.836 6.89099C366.612 6.83855 366.376 6.8771 366.18 6.9982C366.084 7.05788 366 7.13604 365.934 7.22818C365.868 7.32032 365.821 7.42462 365.795 7.53506L364.352 13.7843L357.185 12.129L358.628 5.8798C358.654 5.76935 358.657 5.65495 358.638 5.54318C358.619 5.43142 358.578 5.32451 358.518 5.22861C358.395 5.03384 358.2 4.89571 357.975 4.84446L345.393 1.93855C345.169 1.88643 344.934 1.92505 344.738 2.04598C344.642 2.10565 344.558 2.18381 344.492 2.27596C344.426 2.3681 344.379 2.47239 344.353 2.58284L342.91 8.83207L336.209 7.28437C335.985 7.23266 335.749 7.27126 335.553 7.39179C335.457 7.45147 335.373 7.52962 335.307 7.62176C335.241 7.7139 335.194 7.8182 335.169 7.92864L332.285 20.4152C332.233 20.6379 332.273 20.8721 332.395 21.0664C332.518 21.2609 332.713 21.3989 332.937 21.4503L339.638 22.998L337.997 30.1026L331.296 28.5549C331.072 28.5027 330.837 28.5414 330.641 28.6623C330.544 28.722 330.461 28.8001 330.395 28.8922C330.329 28.9844 330.282 29.0887 330.256 29.1991L327.372 41.6848C327.321 41.9075 327.361 42.1417 327.483 42.336C327.605 42.5307 327.8 42.669 328.024 42.7208L334.726 44.2685L333.282 50.5177C333.231 50.7405 333.269 50.9744 333.393 51.1689C333.515 51.3634 333.71 51.5015 333.934 51.5529L346.517 54.459C346.742 54.5109 346.978 54.4726 347.173 54.3516C347.269 54.2919 347.353 54.2137 347.419 54.1216C347.485 54.0294 347.532 53.9252 347.557 53.8147L349.001 47.5655L356.163 49.2197L354.72 55.4689C354.668 55.6917 354.708 55.9258 354.83 56.1201C354.953 56.3149 355.148 56.453 355.373 56.5043L367.959 59.4112C368.184 59.4631 368.419 59.4249 368.614 59.3038C368.711 59.2442 368.795 59.1661 368.861 59.074C368.927 58.9819 368.974 58.8776 369 58.7671L370.443 52.5179L377.157 54.0684C377.381 54.1203 377.617 54.0811 377.812 53.96C377.908 53.9004 377.992 53.8222 378.058 53.7301C378.124 53.6379 378.171 53.5336 378.197 53.4232L381.08 40.9375C381.106 40.8271 381.109 40.7127 381.09 40.6009C381.071 40.4891 381.031 40.3823 380.97 40.2864C380.847 40.0919 380.653 39.9538 380.428 39.9024L373.72 38.353L375.361 31.2485L382.069 32.7979C382.294 32.8498 382.53 32.8115 382.725 32.6905C382.821 32.6308 382.905 32.5526 382.971 32.4605C383.037 32.3683 383.084 32.264 383.109 32.1536ZM359.438 35.0546L352.273 33.3997L353.914 26.2952L361.076 27.9492L359.438 35.0546Z" fill="#34A853" stroke="#1E1E1E" stroke-width="1.41127" stroke-linejoin="round"/>
<path d="M380.154 644.781L375.929 632.682C375.892 632.575 375.833 632.477 375.758 632.392C375.682 632.308 375.59 632.239 375.488 632.191C375.28 632.092 375.042 632.079 374.825 632.155L368.325 634.425L366.21 628.37C366.173 628.263 366.114 628.164 366.039 628.08C365.963 627.995 365.871 627.927 365.769 627.878C365.561 627.779 365.323 627.766 365.106 627.843L352.91 632.101C352.692 632.176 352.513 632.335 352.412 632.542C352.362 632.644 352.333 632.755 352.327 632.868C352.32 632.981 352.336 633.094 352.373 633.201L354.488 639.257L347.543 641.681L345.429 635.626C345.391 635.519 345.333 635.421 345.258 635.336C345.182 635.252 345.09 635.183 344.988 635.134C344.78 635.035 344.541 635.023 344.324 635.099L332.133 639.356C331.915 639.432 331.737 639.59 331.636 639.797C331.586 639.899 331.557 640.009 331.551 640.122C331.544 640.236 331.56 640.349 331.597 640.456L333.711 646.511L327.218 648.778C327.001 648.854 326.823 649.013 326.721 649.219C326.672 649.321 326.643 649.432 326.636 649.545C326.629 649.658 326.645 649.771 326.683 649.878L330.907 661.977C330.983 662.193 331.141 662.37 331.348 662.469C331.556 662.568 331.794 662.581 332.011 662.505L338.504 660.237L340.908 667.121L334.415 669.389C334.198 669.464 334.019 669.622 333.918 669.829C333.868 669.931 333.839 670.042 333.833 670.155C333.826 670.268 333.842 670.381 333.879 670.488L338.104 682.586C338.179 682.802 338.337 682.979 338.544 683.078C338.752 683.178 338.991 683.191 339.208 683.115L345.701 680.847L347.815 686.903C347.891 687.118 348.048 687.296 348.256 687.394C348.464 687.493 348.702 687.506 348.919 687.43L361.111 683.173C361.329 683.097 361.508 682.939 361.608 682.732C361.658 682.63 361.687 682.52 361.694 682.406C361.7 682.293 361.685 682.18 361.647 682.073L359.533 676.018L366.473 673.594L368.587 679.65C368.662 679.865 368.821 680.042 369.028 680.141C369.236 680.24 369.475 680.253 369.692 680.177L381.888 675.918C382.105 675.842 382.284 675.684 382.385 675.477C382.434 675.376 382.464 675.265 382.47 675.152C382.477 675.038 382.462 674.925 382.424 674.818L380.31 668.763L386.815 666.491C387.032 666.415 387.211 666.256 387.311 666.05C387.361 665.948 387.39 665.837 387.396 665.724C387.403 665.611 387.387 665.498 387.35 665.391L383.126 653.293C383.088 653.186 383.03 653.087 382.954 653.003C382.879 652.918 382.787 652.85 382.685 652.801C382.477 652.702 382.239 652.689 382.022 652.765L375.521 655.035L373.118 648.151L379.618 645.881C379.835 645.805 380.014 645.647 380.115 645.441C380.164 645.339 380.193 645.228 380.2 645.115C380.207 645.002 380.191 644.888 380.154 644.781ZM361.683 659.867L354.741 662.291L352.337 655.407L359.276 652.984L361.683 659.867Z" fill="#34A853" stroke="#1E1E1E" stroke-width="1.41127" stroke-linejoin="round"/>
<g filter="url(#filter0_n_828_347)">
<path d="M693.677 322.802L675.665 330.079L668.865 313.246C668.718 312.885 668.435 312.594 668.078 312.44C667.902 312.364 667.713 312.324 667.521 312.322C667.329 312.32 667.139 312.355 666.961 312.427L647.567 320.263C647.389 320.334 647.227 320.441 647.091 320.576C646.955 320.711 646.846 320.871 646.772 321.048C646.623 321.407 646.62 321.812 646.767 322.174L653.568 339.007L635.56 346.283C635.382 346.355 635.221 346.462 635.084 346.597C634.948 346.732 634.84 346.893 634.766 347.07C634.615 347.428 634.614 347.832 634.76 348.195L642.368 367.026C642.514 367.388 642.797 367.678 643.154 367.831C643.511 367.986 643.913 367.991 644.272 367.846L662.28 360.57L668.943 377.061C669.089 377.423 669.372 377.713 669.729 377.867C669.905 377.943 670.094 377.983 670.286 377.986C670.478 377.988 670.668 377.952 670.846 377.881L690.24 370.045C690.598 369.9 690.884 369.618 691.035 369.259C691.184 368.9 691.187 368.495 691.04 368.133L684.377 351.642L702.389 344.365C702.747 344.22 703.033 343.938 703.183 343.579C703.333 343.22 703.335 342.816 703.189 342.453L695.58 323.621C695.434 323.259 695.151 322.969 694.794 322.816C694.618 322.74 694.429 322.699 694.237 322.697C694.045 322.694 693.855 322.731 693.677 322.802Z" fill="url(#paint0_linear_828_347)"/>
<path d="M667.334 313.354L667.42 313.329C667.449 313.324 667.479 313.322 667.509 313.322C667.569 313.323 667.628 313.335 667.683 313.359L667.682 313.358C667.796 313.407 667.889 313.502 667.937 313.621L675.113 331.381L694.049 323.73C694.108 323.707 694.168 323.696 694.224 323.697C694.284 323.697 694.343 323.71 694.398 323.734L694.399 323.735C694.512 323.784 694.605 323.877 694.653 323.995L702.261 342.828C702.309 342.945 702.308 343.075 702.261 343.191C702.213 343.306 702.123 343.394 702.014 343.438L683.075 351.089L690.113 368.508C690.16 368.625 690.16 368.756 690.113 368.872C690.064 368.987 689.974 369.073 689.865 369.117L670.472 376.953C670.417 376.975 670.358 376.987 670.298 376.986C670.269 376.986 670.239 376.982 670.21 376.976L670.125 376.949C670.01 376.898 669.917 376.804 669.87 376.686L662.832 359.268L643.897 366.918C643.787 366.963 643.663 366.962 643.552 366.913L643.548 366.912L643.468 366.868C643.393 366.816 643.332 366.741 643.296 366.652L635.687 347.82C635.639 347.7 635.641 347.57 635.688 347.457L635.689 347.454C635.712 347.399 635.746 347.349 635.789 347.307C635.831 347.265 635.881 347.232 635.936 347.21L654.87 339.56L647.694 321.8C647.646 321.68 647.647 321.548 647.695 321.434L647.696 321.433C647.718 321.379 647.752 321.329 647.794 321.287C647.816 321.266 647.839 321.247 647.863 321.231L647.942 321.189L667.334 313.354Z" stroke="black" stroke-width="2"/>
</g>
<g filter="url(#filter1_n_828_347)">
<path d="M67.8886 366.36L58.1756 349.537L73.8983 340.459C74.236 340.264 74.4847 339.943 74.5872 339.568C74.6378 339.383 74.6513 339.19 74.6269 339C74.6025 338.81 74.5406 338.626 74.4449 338.46L63.9864 320.345C63.8905 320.179 63.7625 320.034 63.61 319.918C63.4574 319.801 63.2833 319.716 63.0977 319.668C62.7222 319.569 62.3204 319.624 61.9818 319.819L46.2591 328.897L36.5481 312.077C36.452 311.911 36.3239 311.765 36.1712 311.649C36.0184 311.533 35.8442 311.448 35.6585 311.4C35.2825 311.301 34.8821 311.355 34.5434 311.551L16.9545 321.705C16.6167 321.9 16.3685 322.221 16.2664 322.596C16.163 322.971 16.2143 323.37 16.4078 323.705L26.1188 340.525L10.7157 349.418C10.3779 349.613 10.1302 349.933 10.0268 350.308C9.97601 350.493 9.96245 350.687 9.98687 350.877C10.0113 351.067 10.0732 351.251 10.169 351.417L20.6275 369.531C20.8205 369.866 21.1403 370.11 21.5163 370.209C21.8927 370.307 22.2936 370.253 22.6322 370.058L38.0353 361.165L47.7483 377.988C47.9413 378.322 48.2611 378.566 48.6371 378.665C49.0135 378.763 49.4144 378.71 49.753 378.514L67.3428 368.359C67.6806 368.164 67.9283 367.843 68.0309 367.468C68.0817 367.283 68.0953 367.09 68.0711 366.9C68.0468 366.71 67.9842 366.526 67.8886 366.36Z" fill="url(#paint1_linear_828_347)"/>
<path d="M73.5784 338.959L73.6152 339.04C73.6246 339.068 73.631 339.098 73.6348 339.127C73.6425 339.186 73.6381 339.247 73.6223 339.305L73.6232 339.304C73.5906 339.423 73.5095 339.529 73.3985 339.593L56.8096 349.17L67.0215 366.858C67.0531 366.913 67.0722 366.971 67.0793 367.026C67.0868 367.086 67.0826 367.146 67.0668 367.204L67.0659 367.204C67.0332 367.324 66.9532 367.428 66.843 367.492L49.2527 377.648C49.143 377.711 49.0141 377.729 48.8926 377.698C48.7722 377.666 48.6731 377.589 48.6144 377.488L38.4015 359.798L22.1322 369.191C22.0224 369.255 21.8929 369.273 21.7712 369.242C21.6511 369.21 21.5526 369.133 21.4939 369.031L11.0359 350.917C11.0061 350.866 10.9861 350.809 10.9785 350.75C10.9748 350.72 10.9738 350.69 10.9758 350.661L10.9916 350.573C11.0254 350.452 11.1059 350.347 11.2157 350.283L27.485 340.89L17.274 323.205C17.2146 323.102 17.1985 322.979 17.2307 322.862L17.2318 322.858L17.2639 322.773C17.3049 322.691 17.3705 322.62 17.4544 322.572L35.0438 312.416C35.1561 312.352 35.285 312.336 35.4031 312.367L35.4066 312.367C35.4642 312.382 35.5183 312.409 35.5658 312.445C35.613 312.481 35.6529 312.526 35.6826 312.577L45.8931 330.262L62.482 320.685C62.5936 320.621 62.7248 320.603 62.8443 320.635L62.8448 320.636C62.9023 320.651 62.9561 320.677 63.0035 320.713C63.0272 320.731 63.0492 320.751 63.0688 320.773L63.1209 320.846L73.5784 338.959Z" stroke="black" stroke-width="2"/>
</g>
<defs>
<filter id="filter0_n_828_347" x="634.652" y="312.322" width="68.6454" height="65.6641" filterUnits="userSpaceOnUse" color-interpolation-filters="sRGB">
<feFlood flood-opacity="0" result="BackgroundImageFix"/>
<feBlend mode="normal" in="SourceGraphic" in2="BackgroundImageFix" result="shape"/>
<feTurbulence type="fractalNoise" baseFrequency="3.3333332538604736 3.3333332538604736" stitchTiles="stitch" numOctaves="3" result="noise" seed="817" />
<feColorMatrix in="noise" type="luminanceToAlpha" result="alphaNoise" />
<feComponentTransfer in="alphaNoise" result="coloredNoise1">
<feFuncA type="discrete" tableValues="0 0 0 0 1 1 1 1 1 1 1 1 1 1 1 1 1 1 1 1 1 1 1 1 1 1 1 1 1 1 1 1 1 1 1 1 1 1 1 1 1 1 1 1 1 1 0 0 0 0 0 0 0 0 0 0 0 0 0 0 0 0 0 0 0 0 0 0 0 0 0 0 0 0 0 0 0 0 0 0 0 0 0 0 0 0 0 0 0 0 0 0 0 0 0 0 0 0 0 0 "/>
</feComponentTransfer>
<feComposite operator="in" in2="shape" in="coloredNoise1" result="noise1Clipped" />
<feFlood flood-color="rgba(166, 196, 255, 0.42)" result="color1Flood" />
<feComposite operator="in" in2="noise1Clipped" in="color1Flood" result="color1" />
<feMerge result="effect1_noise_828_347">
<feMergeNode in="shape" />
<feMergeNode in="color1" />
</feMerge>
</filter>
<filter id="filter1_n_828_347" x="9.9751" y="311.351" width="64.6636" height="67.3619" filterUnits="userSpaceOnUse" color-interpolation-filters="sRGB">
<feFlood flood-opacity="0" result="BackgroundImageFix"/>
<feBlend mode="normal" in="SourceGraphic" in2="BackgroundImageFix" result="shape"/>
<feTurbulence type="fractalNoise" baseFrequency="3.3333332538604736 3.3333332538604736" stitchTiles="stitch" numOctaves="3" result="noise" seed="817" />
<feColorMatrix in="noise" type="luminanceToAlpha" result="alphaNoise" />
<feComponentTransfer in="alphaNoise" result="coloredNoise1">
<feFuncA type="discrete" tableValues="0 0 0 0 1 1 1 1 1 1 1 1 1 1 1 1 1 1 1 1 1 1 1 1 1 1 1 1 1 1 1 1 1 1 1 1 1 1 1 1 1 1 1 1 1 1 0 0 0 0 0 0 0 0 0 0 0 0 0 0 0 0 0 0 0 0 0 0 0 0 0 0 0 0 0 0 0 0 0 0 0 0 0 0 0 0 0 0 0 0 0 0 0 0 0 0 0 0 0 0 "/>
</feComponentTransfer>
<feComposite operator="in" in2="shape" in="coloredNoise1" result="noise1Clipped" />
<feFlood flood-color="rgba(166, 196, 255, 0.42)" result="color1Flood" />
<feComposite operator="in" in2="noise1Clipped" in="color1Flood" result="color1" />
<feMerge result="effect1_noise_828_347">
<feMergeNode in="shape" />
<feMergeNode in="color1" />
</feMerge>
</filter>
<linearGradient id="paint0_linear_828_347" x1="649.343" y1="367.044" x2="691.123" y2="312.954" gradientUnits="userSpaceOnUse">
<stop stop-color="#1C71FE"/>
<stop offset="1" stop-color="#C7DCFF"/>
</linearGradient>
<linearGradient id="paint1_linear_828_347" x1="17.9077" y1="328.615" x2="77.2855" y2="362.46" gradientUnits="userSpaceOnUse">
<stop stop-color="#1C71FE"/>
<stop offset="1" stop-color="#C7DCFF"/>
</linearGradient>
</defs>
</svg>
