<svg width="691" height="692" viewBox="0 0 691 692" fill="none" xmlns="http://www.w3.org/2000/svg">
<circle opacity="0.29" cx="351" cy="345" r="313" stroke="#F6BA04" stroke-width="2"/>
<path d="M375.569 32.1536L378.453 19.667C378.478 19.5566 378.481 19.4422 378.462 19.3304C378.444 19.2187 378.403 19.1118 378.342 19.0159C378.219 18.8217 378.024 18.6837 377.8 18.6319L371.092 17.0825L372.535 10.8333C372.561 10.7228 372.564 10.6083 372.545 10.4965C372.526 10.3847 372.485 10.2778 372.424 10.1819C372.301 9.9874 372.106 9.84938 371.882 9.79796L359.296 6.89099C359.071 6.83855 358.835 6.8771 358.639 6.9982C358.543 7.05788 358.459 7.13604 358.393 7.22818C358.327 7.32032 358.28 7.42462 358.255 7.53506L356.811 13.7843L349.644 12.129L351.088 5.8798C351.113 5.76935 351.117 5.65495 351.098 5.54318C351.079 5.43142 351.038 5.32451 350.977 5.22861C350.854 5.03384 350.659 4.89571 350.435 4.84446L337.853 1.93855C337.629 1.88643 337.393 1.92505 337.197 2.04598C337.101 2.10565 337.017 2.18381 336.951 2.27596C336.885 2.3681 336.838 2.47239 336.813 2.58284L335.369 8.83207L328.668 7.28437C328.444 7.23266 328.209 7.27126 328.013 7.39179C327.916 7.45147 327.833 7.52962 327.767 7.62176C327.701 7.7139 327.654 7.8182 327.628 7.92864L324.744 20.4152C324.693 20.6379 324.732 20.8721 324.855 21.0664C324.977 21.2609 325.172 21.3989 325.396 21.4503L332.098 22.998L330.457 30.1026L323.756 28.5549C323.532 28.5027 323.296 28.5414 323.1 28.6623C323.004 28.722 322.92 28.8001 322.854 28.8922C322.788 28.9844 322.741 29.0887 322.716 29.1991L319.832 41.6848C319.78 41.9075 319.82 42.1417 319.942 42.336C320.065 42.5307 320.26 42.669 320.484 42.7208L327.185 44.2685L325.742 50.5177C325.69 50.7405 325.729 50.9744 325.852 51.1689C325.975 51.3634 326.17 51.5015 326.394 51.5529L338.977 54.459C339.201 54.5109 339.437 54.4726 339.632 54.3516C339.728 54.2919 339.812 54.2137 339.878 54.1216C339.944 54.0294 339.991 53.9252 340.017 53.8147L341.46 47.5655L348.622 49.2197L347.179 55.4689C347.128 55.6917 347.167 55.9258 347.289 56.1201C347.412 56.3149 347.607 56.453 347.832 56.5043L360.419 59.4112C360.643 59.4631 360.879 59.4249 361.074 59.3038C361.17 59.2442 361.254 59.1661 361.32 59.074C361.387 58.9819 361.434 58.8776 361.46 58.7671L362.903 52.5179L369.616 54.0684C369.841 54.1203 370.077 54.0811 370.272 53.96C370.368 53.9004 370.451 53.8222 370.518 53.7301C370.584 53.6379 370.631 53.5336 370.656 53.4232L373.54 40.9375C373.565 40.8271 373.569 40.7127 373.55 40.6009C373.531 40.4892 373.49 40.3823 373.43 40.2864C373.307 40.0919 373.112 39.9538 372.888 39.9024L366.179 38.353L367.82 31.2485L374.529 32.7979C374.753 32.8498 374.989 32.8115 375.184 32.6905C375.28 32.6308 375.364 32.5526 375.43 32.4605C375.496 32.3683 375.543 32.264 375.569 32.1536ZM351.898 35.0546L344.733 33.3997L346.374 26.2952L353.535 27.9492L351.898 35.0546Z" fill="#34A853" stroke="#1E1E1E" stroke-width="1.41127" stroke-linejoin="round"/>
<path d="M387.154 645.781L382.929 633.682C382.892 633.575 382.833 633.477 382.758 633.392C382.682 633.308 382.59 633.239 382.488 633.191C382.28 633.092 382.042 633.079 381.825 633.155L375.325 635.425L373.21 629.37C373.173 629.263 373.115 629.164 373.039 629.08C372.963 628.995 372.871 628.927 372.769 628.878C372.561 628.779 372.323 628.766 372.106 628.843L359.91 633.101C359.692 633.176 359.513 633.335 359.412 633.542C359.362 633.644 359.333 633.755 359.327 633.868C359.32 633.981 359.336 634.094 359.373 634.201L361.488 640.257L354.543 642.681L352.429 636.626C352.392 636.519 352.333 636.421 352.258 636.336C352.182 636.252 352.09 636.183 351.988 636.134C351.78 636.035 351.541 636.023 351.324 636.099L339.133 640.356C338.916 640.432 338.737 640.59 338.636 640.797C338.586 640.899 338.557 641.009 338.551 641.122C338.544 641.236 338.56 641.349 338.597 641.456L340.711 647.511L334.218 649.778C334.001 649.854 333.823 650.013 333.721 650.219C333.672 650.321 333.643 650.432 333.636 650.545C333.629 650.658 333.645 650.771 333.683 650.878L337.907 662.977C337.983 663.193 338.141 663.37 338.348 663.469C338.556 663.568 338.794 663.581 339.011 663.505L345.504 661.237L347.908 668.121L341.415 670.389C341.198 670.464 341.019 670.622 340.918 670.829C340.868 670.931 340.839 671.042 340.833 671.155C340.826 671.268 340.842 671.381 340.879 671.488L345.104 683.586C345.179 683.802 345.337 683.979 345.544 684.078C345.752 684.178 345.991 684.191 346.208 684.115L352.701 681.847L354.815 687.903C354.891 688.118 355.048 688.296 355.256 688.394C355.464 688.493 355.702 688.506 355.919 688.43L368.111 684.173C368.329 684.097 368.508 683.939 368.608 683.732C368.658 683.63 368.687 683.52 368.694 683.406C368.7 683.293 368.685 683.18 368.647 683.073L366.533 677.018L373.473 674.594L375.587 680.65C375.663 680.865 375.821 681.042 376.028 681.141C376.236 681.24 376.475 681.253 376.692 681.177L388.888 676.918C389.105 676.842 389.284 676.684 389.385 676.477C389.434 676.376 389.464 676.265 389.47 676.152C389.477 676.038 389.462 675.925 389.424 675.818L387.31 669.763L393.815 667.491C394.032 667.415 394.211 667.256 394.311 667.05C394.361 666.948 394.39 666.837 394.397 666.724C394.403 666.611 394.387 666.498 394.35 666.391L390.126 654.293C390.088 654.186 390.03 654.087 389.954 654.003C389.879 653.918 389.787 653.85 389.685 653.801C389.477 653.702 389.239 653.689 389.022 653.765L382.521 656.035L380.118 649.151L386.618 646.881C386.836 646.805 387.015 646.647 387.115 646.441C387.165 646.339 387.193 646.228 387.2 646.115C387.207 646.002 387.191 645.888 387.154 645.781ZM368.683 660.867L361.741 663.291L359.337 656.407L366.276 653.984L368.683 660.867Z" fill="#34A853" stroke="#1E1E1E" stroke-width="1.41127" stroke-linejoin="round"/>
<g filter="url(#filter0_n_338_10378)">
<path d="M671.393 227.381L653.815 235.651L646.086 219.223C645.92 218.87 645.621 218.596 645.256 218.462C645.076 218.396 644.885 218.367 644.693 218.375C644.502 218.383 644.314 218.43 644.14 218.511L625.213 227.415C625.039 227.497 624.884 227.612 624.755 227.755C624.626 227.897 624.527 228.063 624.463 228.244C624.334 228.61 624.354 229.015 624.521 229.369L632.249 245.797L614.675 254.065C614.501 254.146 614.346 254.262 614.217 254.404C614.089 254.547 613.99 254.713 613.926 254.894C613.795 255.261 613.816 255.664 613.983 256.018L622.629 274.396C622.795 274.749 623.093 275.023 623.458 275.156C623.823 275.291 624.225 275.273 624.575 275.108L642.149 266.84L649.721 282.934C649.887 283.287 650.186 283.561 650.551 283.695C650.731 283.761 650.922 283.791 651.114 283.783C651.305 283.774 651.493 283.728 651.667 283.646L670.594 274.742C670.943 274.578 671.213 274.279 671.344 273.913C671.473 273.546 671.453 273.142 671.286 272.788L663.715 256.695L681.293 248.425C681.642 248.261 681.912 247.962 682.042 247.596C682.171 247.229 682.152 246.825 681.985 246.471L673.339 228.093C673.173 227.74 672.874 227.466 672.509 227.332C672.329 227.266 672.138 227.237 671.946 227.245C671.754 227.253 671.567 227.3 671.393 227.381Z" fill="url(#paint0_linear_338_10378)"/>
<path d="M644.565 219.416L644.649 219.386C644.678 219.379 644.707 219.375 644.737 219.374C644.797 219.371 644.857 219.381 644.913 219.401L644.912 219.401C645.028 219.443 645.127 219.533 645.181 219.649L653.336 236.982L671.816 228.287C671.874 228.26 671.933 228.246 671.989 228.244C672.049 228.241 672.109 228.25 672.165 228.271L672.165 228.272C672.282 228.315 672.379 228.403 672.433 228.518L681.08 246.897C681.134 247.012 681.14 247.142 681.1 247.26C681.058 247.378 680.973 247.47 680.867 247.52L662.384 256.215L670.381 273.214C670.435 273.329 670.442 273.459 670.401 273.578C670.36 273.695 670.274 273.787 670.168 273.837L651.242 282.741C651.188 282.766 651.13 282.781 651.07 282.784C651.04 282.785 651.011 282.784 650.982 282.779L650.895 282.756C650.777 282.712 650.679 282.623 650.625 282.508L642.628 265.51L624.149 274.203C624.042 274.254 623.918 274.259 623.804 274.218L623.8 274.216L623.718 274.177C623.64 274.129 623.575 274.058 623.534 273.97L614.887 255.592C614.832 255.475 614.827 255.345 614.868 255.23L614.869 255.226C614.888 255.17 614.92 255.119 614.96 255.074C615 255.03 615.048 254.994 615.101 254.969L633.58 246.276L625.425 228.943C625.371 228.826 625.364 228.694 625.406 228.578L625.406 228.577C625.426 228.521 625.457 228.47 625.497 228.426C625.517 228.404 625.539 228.383 625.563 228.366L625.639 228.32L644.565 219.416Z" stroke="black" stroke-width="2"/>
</g>
<g filter="url(#filter1_n_338_10378)">
<path d="M68.8886 407.36L59.1756 390.537L74.8983 381.459C75.236 381.264 75.4847 380.943 75.5872 380.568C75.6378 380.383 75.6513 380.19 75.6269 380C75.6025 379.81 75.5406 379.626 75.4449 379.46L64.9864 361.345C64.8905 361.179 64.7625 361.034 64.61 360.918C64.4574 360.801 64.2833 360.716 64.0977 360.668C63.7222 360.569 63.3204 360.624 62.9818 360.819L47.2591 369.897L37.5481 353.077C37.452 352.911 37.3239 352.765 37.1712 352.649C37.0184 352.533 36.8442 352.448 36.6585 352.4C36.2825 352.301 35.8821 352.355 35.5434 352.551L17.9545 362.705C17.6167 362.9 17.3685 363.221 17.2664 363.596C17.163 363.971 17.2143 364.37 17.4078 364.705L27.1188 381.525L11.7157 390.418C11.3779 390.613 11.1302 390.933 11.0268 391.308C10.976 391.493 10.9625 391.687 10.9869 391.877C11.0113 392.067 11.0732 392.251 11.169 392.417L21.6275 410.531C21.8205 410.866 22.1403 411.11 22.5163 411.209C22.8927 411.307 23.2936 411.253 23.6322 411.058L39.0353 402.165L48.7483 418.988C48.9413 419.322 49.2611 419.566 49.6371 419.665C50.0135 419.763 50.4144 419.71 50.753 419.514L68.3428 409.359C68.6806 409.164 68.9283 408.843 69.0309 408.468C69.0817 408.283 69.0953 408.09 69.0711 407.9C69.0468 407.71 68.9842 407.526 68.8886 407.36Z" fill="url(#paint1_linear_338_10378)"/>
<path d="M74.5784 379.959L74.6152 380.04C74.6246 380.068 74.631 380.098 74.6348 380.127C74.6425 380.186 74.6381 380.247 74.6223 380.305L74.6232 380.304C74.5906 380.423 74.5095 380.529 74.3985 380.593L57.8096 390.17L68.0215 407.858C68.0531 407.913 68.0722 407.971 68.0793 408.026C68.0868 408.086 68.0826 408.146 68.0668 408.204L68.0659 408.204C68.0332 408.324 67.9532 408.428 67.843 408.492L50.2527 418.648C50.143 418.711 50.0141 418.729 49.8926 418.698C49.7722 418.666 49.6731 418.589 49.6144 418.488L39.4015 400.798L23.1322 410.191C23.0224 410.255 22.8929 410.273 22.7712 410.242C22.6511 410.21 22.5526 410.133 22.4939 410.031L12.0359 391.917C12.0061 391.866 11.9861 391.809 11.9785 391.75C11.9748 391.72 11.9738 391.69 11.9758 391.661L11.9916 391.573C12.0254 391.452 12.1059 391.347 12.2157 391.283L28.485 381.89L18.274 364.205C18.2146 364.102 18.1985 363.979 18.2307 363.862L18.2318 363.858L18.2639 363.773C18.3049 363.691 18.3705 363.62 18.4544 363.572L36.0438 353.416C36.1561 353.352 36.285 353.336 36.4031 353.367L36.4066 353.367C36.4642 353.382 36.5183 353.409 36.5658 353.445C36.613 353.481 36.6529 353.526 36.6826 353.577L46.8931 371.262L63.482 361.685C63.5936 361.621 63.7248 361.603 63.8443 361.635L63.8448 361.636C63.9023 361.651 63.9561 361.677 64.0035 361.713C64.0272 361.731 64.0492 361.751 64.0688 361.773L64.1209 361.846L74.5784 379.959Z" stroke="black" stroke-width="2"/>
</g>
<defs>
<filter id="filter0_n_338_10378" x="613.841" y="218.374" width="68.2854" height="65.4105" filterUnits="userSpaceOnUse" color-interpolation-filters="sRGB">
<feFlood flood-opacity="0" result="BackgroundImageFix"/>
<feBlend mode="normal" in="SourceGraphic" in2="BackgroundImageFix" result="shape"/>
<feTurbulence type="fractalNoise" baseFrequency="3.3333332538604736 3.3333332538604736" stitchTiles="stitch" numOctaves="3" result="noise" seed="817" />
<feColorMatrix in="noise" type="luminanceToAlpha" result="alphaNoise" />
<feComponentTransfer in="alphaNoise" result="coloredNoise1">
<feFuncA type="discrete" tableValues="0 0 0 0 1 1 1 1 1 1 1 1 1 1 1 1 1 1 1 1 1 1 1 1 1 1 1 1 1 1 1 1 1 1 1 1 1 1 1 1 1 1 1 1 1 1 0 0 0 0 0 0 0 0 0 0 0 0 0 0 0 0 0 0 0 0 0 0 0 0 0 0 0 0 0 0 0 0 0 0 0 0 0 0 0 0 0 0 0 0 0 0 0 0 0 0 0 0 0 0 "/>
</feComponentTransfer>
<feComposite operator="in" in2="shape" in="coloredNoise1" result="noise1Clipped" />
<feFlood flood-color="rgba(166, 196, 255, 0.42)" result="color1Flood" />
<feComposite operator="in" in2="noise1Clipped" in="color1Flood" result="color1" />
<feMerge result="effect1_noise_338_10378">
<feMergeNode in="shape" />
<feMergeNode in="color1" />
</feMerge>
</filter>
<filter id="filter1_n_338_10378" x="10.9751" y="352.351" width="64.6636" height="67.3619" filterUnits="userSpaceOnUse" color-interpolation-filters="sRGB">
<feFlood flood-opacity="0" result="BackgroundImageFix"/>
<feBlend mode="normal" in="SourceGraphic" in2="BackgroundImageFix" result="shape"/>
<feTurbulence type="fractalNoise" baseFrequency="3.3333332538604736 3.3333332538604736" stitchTiles="stitch" numOctaves="3" result="noise" seed="817" />
<feColorMatrix in="noise" type="luminanceToAlpha" result="alphaNoise" />
<feComponentTransfer in="alphaNoise" result="coloredNoise1">
<feFuncA type="discrete" tableValues="0 0 0 0 1 1 1 1 1 1 1 1 1 1 1 1 1 1 1 1 1 1 1 1 1 1 1 1 1 1 1 1 1 1 1 1 1 1 1 1 1 1 1 1 1 1 0 0 0 0 0 0 0 0 0 0 0 0 0 0 0 0 0 0 0 0 0 0 0 0 0 0 0 0 0 0 0 0 0 0 0 0 0 0 0 0 0 0 0 0 0 0 0 0 0 0 0 0 0 0 "/>
</feComponentTransfer>
<feComposite operator="in" in2="shape" in="coloredNoise1" result="noise1Clipped" />
<feFlood flood-color="rgba(166, 196, 255, 0.42)" result="color1Flood" />
<feComposite operator="in" in2="noise1Clipped" in="color1Flood" result="color1" />
<feMerge result="effect1_noise_338_10378">
<feMergeNode in="shape" />
<feMergeNode in="color1" />
</feMerge>
</filter>
<linearGradient id="paint0_linear_338_10378" x1="629.593" y1="274.025" x2="668.294" y2="217.691" gradientUnits="userSpaceOnUse">
<stop stop-color="#1C71FE"/>
<stop offset="1" stop-color="#C7DCFF"/>
</linearGradient>
<linearGradient id="paint1_linear_338_10378" x1="18.9077" y1="369.615" x2="78.2855" y2="403.46" gradientUnits="userSpaceOnUse">
<stop stop-color="#1C71FE"/>
<stop offset="1" stop-color="#C7DCFF"/>
</linearGradient>
</defs>
</svg>
